<?xml version="1.0" standalone="no"?>
<!DOCTYPE svg PUBLIC "-//W3C//DTD SVG 20010904//EN"
 "http://www.w3.org/TR/2001/REC-SVG-20010904/DTD/svg10.dtd">
<svg version="1.0" xmlns="http://www.w3.org/2000/svg"
 width="1024.000000pt" height="1024.000000pt" viewBox="0 0 1024.000000 1024.000000"
 preserveAspectRatio="xMidYMid meet">

<g transform="translate(0.000000,1024.000000) scale(0.100000,-0.100000)"
fill="#000000" stroke="none">
<path d="M3515 8607 c-59 -20 -84 -35 -138 -86 -86 -80 -127 -189 -127 -339 0
-92 1 -94 18 -79 20 19 102 24 102 7 0 -24 19 -7 25 23 20 89 67 127 160 127
33 0 79 -5 103 -10 72 -17 173 -15 232 5 40 13 70 33 110 74 63 63 90 128 90
216 l0 53 -142 6 c-79 3 -199 8 -268 11 -89 3 -137 1 -165 -8z"/>
<path d="M3313 7481 c-123 -42 -172 -120 -182 -289 l-6 -106 -50 -18 c-66 -24
-95 -46 -123 -97 -21 -37 -24 -55 -25 -179 -2 -121 0 -141 18 -172 33 -56 72
-70 203 -70 125 0 168 12 197 56 26 40 7 46 -36 12 -36 -29 -49 -33 -115 -36
-110 -6 -162 4 -196 39 l-29 29 3 149 3 150 34 35 c41 42 98 58 113 32 12 -21
30 -20 60 4 25 19 25 19 69 -3 63 -32 79 -60 88 -154 5 -44 11 -86 15 -92 18
-28 26 -5 26 72 -1 130 -35 184 -151 235 l-46 20 -8 66 c-7 73 0 137 21 178
22 43 97 97 153 111 37 9 51 16 51 29 0 23 -21 22 -87 -1z"/>
<path d="M6865 6598 c-84 -15 -189 -74 -246 -136 -77 -84 -93 -122 -93 -222
l-1 -85 45 3 c48 3 120 34 147 64 23 26 29 23 57 -24 59 -100 147 -155 266
-165 59 -5 73 -3 91 13 12 11 34 18 55 17 64 -2 96 -55 70 -117 -11 -27 -23
-37 -53 -45 -21 -6 -45 -11 -54 -11 -33 0 -51 -194 -28 -302 9 -41 21 -63 54
-95 27 -27 51 -43 67 -43 13 0 49 -7 80 -15 183 -47 304 -168 352 -350 8 -31
17 -59 20 -62 9 -9 84 45 133 95 25 26 60 76 77 112 29 61 31 72 31 175 0 99
-3 115 -27 165 -34 69 -87 130 -179 206 -79 66 -155 163 -186 239 -12 28 -33
92 -48 143 -40 146 -78 216 -160 297 -127 128 -290 177 -470 143z"/>
<path d="M3010 6485 c-22 -26 -8 -50 30 -50 25 0 36 5 38 18 5 23 -15 47 -38
47 -10 0 -23 -7 -30 -15z"/>
<path d="M3227 6483 c-4 -3 -7 -17 -7 -30 0 -21 4 -24 33 -21 27 2 33 8 35 31
3 24 0 27 -26 27 -16 0 -32 -3 -35 -7z"/>
<path d="M4370 6392 c-37 -18 -55 -49 -154 -262 -27 -58 -76 -161 -109 -230
-138 -291 -144 -306 -133 -337 6 -14 12 -8 28 27 11 25 20 53 20 63 0 9 3 15
7 13 8 -6 81 137 81 159 0 8 4 15 8 15 4 0 25 38 46 85 34 74 37 87 25 103
-13 15 -12 16 4 3 15 -12 19 -8 44 45 14 33 26 67 25 77 0 9 3 15 7 12 5 -2
21 26 36 63 35 83 80 148 109 156 11 3 191 6 399 6 244 0 377 4 377 10 0 6
-137 10 -392 10 -354 0 -396 -2 -428 -18z m-383 -804 c-3 -8 -6 -5 -6 6 -1 11
2 17 5 13 3 -3 4 -12 1 -19z"/>
<path d="M1651 5543 c-32 -32 -65 -73 -75 -90 -15 -29 -15 -37 -2 -67 16 -39
96 -119 127 -126 16 -4 26 -22 41 -69 11 -36 27 -76 36 -90 37 -59 86 -111
103 -111 20 0 115 95 257 258 109 124 111 127 70 152 -34 20 -221 84 -281 95
-25 5 -52 23 -85 56 -43 43 -54 49 -91 49 -38 0 -48 -6 -100 -57z"/>
<path d="M3741 4663 c0 -382 -3 -597 -10 -615 -6 -15 -24 -39 -40 -54 -21 -19
-32 -39 -35 -68 -5 -39 -21 -181 -86 -791 -17 -154 -35 -319 -40 -367 -102
-885 -110 -969 -95 -1002 12 -26 14 -55 8 -165 l-8 -135 -38 62 c-46 75 -99
117 -212 168 -83 37 -103 54 -67 54 9 0 23 4 30 8 11 8 202 1295 286 1932 14
107 29 212 32 232 l6 37 -269 3 c-147 2 -275 7 -284 11 -14 7 -17 -1 -23 -55
-4 -35 -15 -128 -26 -208 -11 -80 -31 -230 -45 -335 -14 -104 -41 -307 -61
-450 -19 -143 -44 -325 -54 -405 -11 -80 -35 -262 -54 -404 -32 -235 -35 -273
-29 -406 3 -80 3 -167 -1 -193 l-7 -47 -789 0 c-434 0 -795 -3 -804 -6 -9 -3
-16 -12 -16 -20 0 -12 599 -14 4076 -14 3876 0 4075 1 4072 17 -3 17 -86 18
-1540 21 l-1537 2 -7 34 c-3 19 -3 39 1 45 4 8 -61 11 -215 11 l-221 0 -20
-34 c-23 -39 -41 -46 -121 -46 -62 0 -75 14 -43 46 8 9 15 20 15 25 0 5 -86 9
-207 9 l-208 0 -31 -37 c-31 -36 -34 -38 -115 -44 -46 -4 -170 -8 -275 -8
l-190 -1 -16 34 c-25 52 -77 105 -127 131 -34 17 -332 105 -356 105 -1 0 -6 7
-9 16 -3 8 -2 13 3 10 30 -19 39 39 201 1449 59 510 75 647 87 713 l5 33 -60
-7 c-119 -12 -203 23 -231 99 -7 19 -11 224 -11 613 l0 584 -95 0 -95 0 1
-587z"/>
<path d="M7756 3518 c-3 -13 -6 -33 -6 -45 0 -22 -26 -84 -60 -142 -45 -79
-161 -175 -269 -223 -36 -16 -81 -36 -100 -45 -19 -9 -80 -27 -135 -41 -86
-21 -135 -26 -326 -32 -200 -6 -176 -7 222 -8 301 -1 463 -6 498 -14 l51 -12
45 45 c111 108 176 249 189 410 10 119 6 129 -55 129 -41 0 -49 -3 -54 -22z"/>
<path d="M5984 3431 c-65 -39 -98 -107 -148 -301 -14 -52 -34 -129 -46 -170
-34 -118 -107 -409 -150 -600 -40 -172 -66 -285 -96 -405 -28 -118 -61 -286
-54 -278 9 9 61 168 245 750 125 396 139 447 161 600 38 252 61 326 123 396
30 32 12 37 -35 8z"/>
<path d="M6440 2914 c0 -5 -12 -22 -26 -39 -52 -61 -84 -138 -136 -330 -6 -22
-13 -47 -16 -55 -3 -8 -4 -19 -3 -23 0 -4 -10 -47 -23 -95 -13 -48 -43 -168
-66 -267 -23 -99 -46 -193 -50 -208 -5 -15 -7 -34 -4 -41 3 -8 0 -17 -6 -21
-6 -4 -8 -15 -5 -24 3 -10 -2 -37 -10 -61 -8 -23 -15 -50 -14 -59 2 -28 85
252 165 554 18 72 38 139 44 150 5 11 32 109 59 217 27 109 61 221 76 249 14
29 23 54 20 57 -3 3 -5 1 -5 -4z"/>
<path d="M653 1463 c-7 -2 -13 -11 -13 -19 0 -11 18 -14 80 -14 73 0 80 2 80
20 0 18 -6 20 -67 19 -38 0 -74 -3 -80 -6z"/>
<path d="M9377 1463 c-20 -19 -5 -33 36 -33 48 0 58 5 50 26 -5 14 -74 20 -86
7z"/>
</g>
</svg>
