<?xml version="1.0" encoding="UTF-8"?>
<svg version="1.1" xmlns="http://www.w3.org/2000/svg" width="923" height="328">
<path d="M0 0 C304.59 0 609.18 0 923 0 C923 108.24 923 216.48 923 328 C618.41 328 313.82 328 0 328 C0 219.76 0 111.52 0 0 Z " fill="#FEFEFE" transform="translate(0,0)"/>
<path d="M0 0 C0.85529297 -0.00773437 1.71058594 -0.01546875 2.59179688 -0.0234375 C8.07753981 -0.00669992 12.79556267 0.71202989 18.0625 2.25 C18.0625 2.91 18.0625 3.57 18.0625 4.25 C18.59617188 4.38535156 19.12984375 4.52070312 19.6796875 4.66015625 C26.47230954 6.62273044 31.48851502 9.97547164 37.0625 14.25 C37.92359375 14.89453125 38.7846875 15.5390625 39.671875 16.203125 C48.15972373 22.73619644 54.16089767 30.22957259 60.375 38.875 C61.16753174 39.96832642 61.16753174 39.96832642 61.97607422 41.08374023 C64.80380135 45.09067615 66.52680227 48.56359847 68.0625 53.25 C69.0525 53.58 70.0425 53.91 71.0625 54.25 C85.94876939 79.08818738 90.55867409 112.46403028 84.171875 140.51171875 C80.40849225 153.19325851 76.24519324 167.22139973 65.0625 175.25 C64.2375 176.075 63.4125 176.9 62.5625 177.75 C60.1820129 180.1304871 57.69452673 182.15787619 55.0625 184.25 C54.134375 185.24 54.134375 185.24 53.1875 186.25 C48.28488529 190.86422561 42.3959449 193.05081287 36.0625 194.9375 C35.38960937 195.14955078 34.71671875 195.36160156 34.0234375 195.58007812 C20.53375194 199.70771357 5.38759303 199.34102694 -7.95288086 194.52197266 C-11.87770397 193.15494276 -11.87770397 193.15494276 -15.79907227 194.05810547 C-17.70256068 195.38815482 -19.40372326 196.81683198 -21.125 198.375 C-21.71474609 198.87515625 -22.30449219 199.3753125 -22.91210938 199.890625 C-24.06581156 200.87107936 -25.2117995 201.86069805 -26.34912109 202.86010742 C-32.01403749 207.81712695 -32.01403749 207.81712695 -34.9375 209.1875 C-37.12343014 210.21589574 -37.12343014 210.21589574 -39.046875 212.44140625 C-42.40900638 215.86322408 -46.26342971 218.51356869 -50.1875 221.25 C-50.90035156 221.75789062 -51.61320313 222.26578125 -52.34765625 222.7890625 C-56.73746441 225.87379256 -61.20905458 228.61140695 -65.94067383 231.14135742 C-67.83286583 232.19190687 -69.59633047 233.33173259 -71.375 234.5625 C-73.9375 236.25 -73.9375 236.25 -75.9375 236.25 C-76.2675 237.24 -76.5975 238.23 -76.9375 239.25 C-79.33911133 240.79638672 -79.33911133 240.79638672 -82.51953125 242.4296875 C-83.68033203 243.02910156 -84.84113281 243.62851562 -86.03710938 244.24609375 C-86.6483667 244.55530762 -87.25962402 244.86452148 -87.8894043 245.18310547 C-89.71003638 246.1047691 -91.52244703 247.04107957 -93.33398438 247.98046875 C-116.75213186 260.03686422 -116.75213186 260.03686422 -125.9375 258.25 C-137.42001548 254.48848631 -147.10922045 244.90810432 -152.6875 234.375 C-153.19023437 233.42882812 -153.69296875 232.48265625 -154.2109375 231.5078125 C-154.78070313 230.43273437 -155.35046875 229.35765625 -155.9375 228.25 C-156.65729915 226.93404408 -157.3787327 225.61898118 -158.1015625 224.3046875 C-158.83872413 222.95322451 -159.57570484 221.60166282 -160.3125 220.25 C-160.84955566 219.27957764 -160.84955566 219.27957764 -161.39746094 218.28955078 C-162.95811088 215.40196775 -163.9375 213.58483674 -163.9375 210.25 C-164.5975 210.25 -165.2575 210.25 -165.9375 210.25 C-179.05997282 177.25096933 -186.37627784 143.77963157 -187.9375 108.25 C-187.97746094 107.40308594 -188.01742187 106.55617188 -188.05859375 105.68359375 C-188.7495859 89.12742172 -187.01472866 72.34539424 -175.4296875 59.58984375 C-173.45402511 57.81588511 -171.49214173 56.92622869 -168.9375 56.25 C-168.9375 55.59 -168.9375 54.93 -168.9375 54.25 C-153.16717368 47.19899582 -137.01172174 49.63972385 -120.9375 54.25 C-120.9375 54.91 -120.9375 55.57 -120.9375 56.25 C-120.34686768 56.33999268 -119.75623535 56.42998535 -119.14770508 56.52270508 C-111.1041926 57.91833647 -104.1304613 60.93071382 -96.70898438 64.23632812 C-95.31196289 64.83670898 -95.31196289 64.83670898 -93.88671875 65.44921875 C-93.05487061 65.81877686 -92.22302246 66.18833496 -91.3659668 66.5690918 C-88.46454717 67.38260937 -86.79235623 67.15725099 -83.9375 66.25 C-81.53103049 64.18567252 -81.53103049 64.18567252 -79.375 61.5625 C-78.58996094 60.65113281 -77.80492187 59.73976562 -76.99609375 58.80078125 C-74.86313701 56.23692332 -74.86313701 56.23692332 -72.9375 53.25 C-69.78398694 48.51973041 -66.00418628 44.22247733 -61.9375 40.25 C-61.2775 40.25 -60.6175 40.25 -59.9375 40.25 C-59.67791504 39.67040527 -59.41833008 39.09081055 -59.15087891 38.49365234 C-56.93202871 34.39078851 -53.50104532 31.24293716 -50.3125 27.875 C-49.62542969 27.1325 -48.93835938 26.39 -48.23046875 25.625 C-43.80401807 20.9244914 -39.25334184 16.91080929 -33.9375 13.25 C-33.31327148 12.81929199 -32.68904297 12.38858398 -32.04589844 11.94482422 C-30.25296658 10.73167969 -28.44379368 9.5489305 -26.625 8.375 C-26.01849609 7.9728125 -25.41199219 7.570625 -24.78710938 7.15625 C-20.29428412 4.25 -20.29428412 4.25 -16.9375 4.25 C-16.9375 3.59 -16.9375 2.93 -16.9375 2.25 C-11.18540021 0.28320333 -6.05484733 -0.05450725 0 0 Z " fill="#282781" transform="translate(208.9375,66.75)"/>
<path d="M0 0 C0 0.66 0 1.32 0 2 C1.14210938 2.23589844 2.28421875 2.47179688 3.4609375 2.71484375 C8.30269604 3.93113606 12.32278545 6.07875212 16.625 8.5625 C17.40552734 9.00650146 18.18605469 9.45050293 18.99023438 9.90795898 C29.27532033 15.81138842 39.04607445 21.69591873 47.70703125 29.890625 C49.88263955 31.89203639 52.11781869 33.62889851 54.5 35.375 C60.11118568 39.66354905 67.85543337 45.84522315 69.78125 52.8359375 C69.8534375 53.55007812 69.925625 54.26421875 70 55 C69.33355469 55.4125 68.66710937 55.825 67.98046875 56.25 C55.23718303 64.2346042 44.47598252 72.56552928 34.73828125 84.04296875 C32.58841006 86.46338553 30.2924583 88.71440535 28 91 C26.29937924 92.80019486 24.6119538 94.61294061 22.9375 96.4375 C22.10089844 97.34371094 21.26429688 98.24992187 20.40234375 99.18359375 C18.00087614 101.99897285 16.0265084 104.9077581 14 108 C12.60911555 109.84851371 11.17183559 111.66315213 9.6875 113.4375 C8.96949219 114.32308594 8.25148438 115.20867187 7.51171875 116.12109375 C5 118 5 118 1.7890625 118.02734375 C-2.79591263 116.78420101 -6.98290463 115.06059398 -11.3125 113.125 C-17.79819455 110.30170489 -24.14248599 107.7986922 -31 106 C-31 105.34 -31 104.68 -31 104 C-32.423125 103.814375 -32.423125 103.814375 -33.875 103.625 C-35.96509129 103.33998755 -37.97736147 103.00572519 -40.0234375 102.48828125 C-52.65992042 99.36241442 -66.69260851 99.87297052 -79 104 C-79 104.66 -79 105.32 -79 106 C-80.57421875 107.2265625 -80.57421875 107.2265625 -82.6875 108.625 C-91.40685749 114.98735803 -94.25948178 124.43395823 -96.125 134.6875 C-97.16841324 141.42621052 -97.61752847 148.19603278 -98 155 C-98.66 153.68 -99.32 152.36 -100 151 C-100.66 151 -101.32 151 -102 151 C-118.34616656 118.77661427 -118.25833192 73.75786892 -107.23046875 39.61767578 C-105.6273282 35.02004344 -103.86149007 30.49860101 -102 26 C-101.34 26 -100.68 26 -100 26 C-99.60167969 24.92685547 -99.60167969 24.92685547 -99.1953125 23.83203125 C-95.5317537 15.15203083 -89.84433328 8.3363003 -83 2 C-82.08927734 1.01 -82.08927734 1.01 -81.16015625 0 C-58.91293297 -20.59779081 -24.02012948 -12.01006474 0 0 Z " fill="#20B4EA" transform="translate(119,17)"/>
<path d="M0 0 C0.85529297 -0.00773437 1.71058594 -0.01546875 2.59179688 -0.0234375 C8.07753981 -0.00669992 12.79556267 0.71202989 18.0625 2.25 C18.0625 2.91 18.0625 3.57 18.0625 4.25 C18.59617188 4.38535156 19.12984375 4.52070312 19.6796875 4.66015625 C26.47230954 6.62273044 31.48851502 9.97547164 37.0625 14.25 C37.92359375 14.89453125 38.7846875 15.5390625 39.671875 16.203125 C48.15972373 22.73619644 54.16089767 30.22957259 60.375 38.875 C61.16753174 39.96832642 61.16753174 39.96832642 61.97607422 41.08374023 C64.80380135 45.09067615 66.52680227 48.56359847 68.0625 53.25 C69.5475 53.745 69.5475 53.745 71.0625 54.25 C85.94876939 79.08818738 90.55867409 112.46403028 84.171875 140.51171875 C80.40849225 153.19325851 76.24519324 167.22139973 65.0625 175.25 C64.2375 176.075 63.4125 176.9 62.5625 177.75 C60.1820129 180.1304871 57.69452673 182.15787619 55.0625 184.25 C54.44375 184.91 53.825 185.57 53.1875 186.25 C48.28488529 190.86422561 42.3959449 193.05081287 36.0625 194.9375 C35.38960938 195.14955078 34.71671875 195.36160156 34.0234375 195.58007812 C23.22261657 198.88496252 12.84048009 198.94235541 1.8125 196.9375 C1.1512915 196.81987305 0.49008301 196.70224609 -0.19116211 196.58105469 C-4.79162703 195.67997427 -8.71151143 194.20424601 -12.9375 192.25 C-10.8416894 190.10291575 -8.66082337 188.12973405 -6.375 186.1875 C7.94331823 173.68547398 7.94331823 173.68547398 14.30078125 156.2421875 C14.67129781 145.67271509 9.37952645 136.44221056 3.0625 128.25 C-2.83079656 122.06341341 -9.4745312 116.97421235 -16.4375 112.05859375 C-18.62333419 110.47727933 -20.66116134 108.8400694 -22.6875 107.0625 C-28.34867612 102.10056653 -34.13320822 98.47308558 -40.9375 95.25 C-39.77165585 91.75246755 -39.01125664 91.4003026 -36.0625 89.375 C-24.42377366 80.59035623 -14.38233251 67.107419 -9.9375 53.25 C-9.2775 53.25 -8.6175 53.25 -7.9375 53.25 C-7.03186785 47.8521449 -6.7851362 42.65569935 -6.8125 37.1875 C-6.80863281 36.41083984 -6.80476563 35.63417969 -6.80078125 34.83398438 C-6.8080738 30.5277341 -7.08263218 26.49041577 -7.9375 22.25 C-8.5975 22.25 -9.2575 22.25 -9.9375 22.25 C-14.4375 13.25 -14.4375 13.25 -18.9375 4.25 C-18.2775 4.25 -17.6175 4.25 -16.9375 4.25 C-16.9375 3.59 -16.9375 2.93 -16.9375 2.25 C-11.18540021 0.28320333 -6.05484733 -0.05450725 0 0 Z " fill="#8CCA70" transform="translate(208.9375,66.75)"/>
<path d="M0 0 C0.639375 0.639375 1.27875 1.27875 1.9375 1.9375 C2.62392578 2.61619141 2.62392578 2.61619141 3.32421875 3.30859375 C4.57644935 4.57250016 5.80446471 5.86048159 7.01953125 7.16015625 C13.85247415 14.32816465 20.90713765 18.32416203 30 22 C30 22.66 30 23.32 30 24 C42.04601823 26.59952609 54.97115351 27.50823698 67.01953125 24.4375 C69 24 69 24 73 24 C73 23.34 73 22.68 73 22 C74.01320313 21.67386719 75.02640625 21.34773438 76.0703125 21.01171875 C77.42195504 20.57055764 78.77351307 20.12913758 80.125 19.6875 C80.79015625 19.47416016 81.4553125 19.26082031 82.140625 19.04101562 C86.30169059 17.67439114 90.08339088 15.98154853 94 14 C94.66 14 95.32 14 96 14 C99 18.38461538 99 18.38461538 99 21 C100.485 21.495 100.485 21.495 102 22 C103.37512696 23.97149781 104.70125678 25.97736711 106 28 C107.70535174 30.202213 109.50240952 32.32095583 111.3125 34.4375 C111.795979 35.005896 112.27945801 35.57429199 112.77758789 36.15991211 C116.33517715 40.30697357 120.04643811 44.22751728 124 48 C124.61875 48.63292969 125.2375 49.26585937 125.875 49.91796875 C135.54914068 59.39649262 146.953878 67.81334969 159 74 C159 74.66 159 75.32 159 76 C159.825 76.2475 160.65 76.495 161.5 76.75 C165.52373471 78.18704811 169.21979024 80.02354515 173 82 C169.22777993 85.92969415 165.23107365 89.34097123 160.9375 92.6875 C160.32583984 93.17283203 159.71417969 93.65816406 159.08398438 94.15820312 C154.47158636 97.77332589 154.47158636 97.77332589 151.87890625 99.01953125 C149.78035948 99.99386015 149.78035948 99.99386015 147.765625 102.25 C144.36711074 105.62931361 140.67221199 108.26486456 136.75 111 C136.03714844 111.50789063 135.32429687 112.01578125 134.58984375 112.5390625 C130.20003559 115.62379256 125.72844542 118.36140695 120.99682617 120.89135742 C119.10463417 121.94190687 117.34116953 123.08173259 115.5625 124.3125 C113 126 113 126 111 126 C110.505 127.485 110.505 127.485 110 129 C107.59838867 130.54638672 107.59838867 130.54638672 104.41796875 132.1796875 C103.25716797 132.77910156 102.09636719 133.37851562 100.90039062 133.99609375 C100.2891333 134.30530762 99.67787598 134.61452148 99.0480957 134.93310547 C97.22746362 135.8547691 95.41505297 136.79107957 93.60351562 137.73046875 C70.18536814 149.78686422 70.18536814 149.78686422 61 148 C49.51748452 144.23848631 39.82827955 134.65810432 34.25 124.125 C33.74726562 123.17882812 33.24453125 122.23265625 32.7265625 121.2578125 C31.87191406 119.64519531 31.87191406 119.64519531 31 118 C30.28020085 116.68404408 29.5587673 115.36898118 28.8359375 114.0546875 C28.09877587 112.70322451 27.36179516 111.35166282 26.625 110 C26.26696289 109.35305176 25.90892578 108.70610352 25.54003906 108.03955078 C23.97938912 105.15196775 23 103.33483674 23 100 C22.34 100 21.68 100 21 100 C9.1963578 70.31742747 -0.41312234 38.00725519 -0.0625 5.75 C-0.05347656 4.65171875 -0.04445313 3.5534375 -0.03515625 2.421875 C-0.02355469 1.62265625 -0.01195313 0.8234375 0 0 Z " fill="#BD007A" transform="translate(22,177)"/>
<path d="M0 0 C4.24923584 1.66674701 8.21507751 3.6966694 12.23828125 5.84375 C13.01365234 6.24722656 13.78902344 6.65070313 14.58789062 7.06640625 C15.32458984 7.45699219 16.06128906 7.84757813 16.8203125 8.25 C17.48909424 8.60384766 18.15787598 8.95769531 18.84692383 9.32226562 C20.42578125 10.34375 20.42578125 10.34375 21.42578125 12.34375 C23.12693696 13.25242337 24.86358585 14.09496455 26.61328125 14.90625 C32.17525661 17.60759126 37.29661148 20.68927943 42.44018555 24.09594727 C45.27974078 25.97493584 48.13493587 27.77736214 51.09765625 29.453125 C54.78781403 31.54941182 58.07450568 33.7448016 61.42578125 36.34375 C61.42578125 37.00375 61.42578125 37.66375 61.42578125 38.34375 C61.96976562 38.58996094 62.51375 38.83617187 63.07421875 39.08984375 C68.2596656 41.85484116 72.81571328 45.7186525 77.42578125 49.34375 C78.32554687 50.04886719 79.2253125 50.75398438 80.15234375 51.48046875 C88.95654605 58.85364745 97.02149533 69.79816088 98.734375 81.44140625 C99.1752458 89.01636824 96.91972724 96.07277233 92.33203125 102.08984375 C90.10143294 104.59183152 87.80404349 106.98247535 85.42578125 109.34375 C84.88953125 109.91609375 84.35328125 110.4884375 83.80078125 111.078125 C82.72630091 112.21656251 81.58410017 113.2907328 80.42578125 114.34375 C79.76578125 114.34375 79.10578125 114.34375 78.42578125 114.34375 C78.21953125 114.92125 78.01328125 115.49875 77.80078125 116.09375 C75.76371763 119.42712683 73.99057468 120.72338935 70.42578125 122.34375 C67.18112772 121.87939887 64.39396417 120.70017768 61.42578125 119.34375 C60.31203125 118.84875 59.19828125 118.35375 58.05078125 117.84375 C55.42578125 116.34375 55.42578125 116.34375 54.09765625 114.9375 C51.95883625 112.89862486 49.65464381 111.73992296 47.05078125 110.34375 C40.8490414 106.8106376 35.68827817 102.53988573 30.3359375 97.84765625 C28.12026463 95.94128536 25.98028072 94.25961095 23.55078125 92.65625 C20.29551944 90.24735626 17.96237562 87.73422097 15.37890625 84.64453125 C13.12119031 81.98494187 10.74483077 79.45536363 8.36328125 76.90625 C4.71748237 72.9229796 1.58574262 68.92528169 -1.22265625 64.31640625 C-2.53645889 62.25565442 -2.53645889 62.25565442 -4.484375 60.5078125 C-7.06487733 57.83566616 -8.83173006 54.87267144 -10.63671875 51.65625 C-10.98742432 51.0377417 -11.33812988 50.4192334 -11.69946289 49.78198242 C-14.29563972 45.0942206 -16.13178756 40.51953252 -17.57421875 35.34375 C-18.06921875 33.85875 -18.06921875 33.85875 -18.57421875 32.34375 C-19.78945866 23.37558715 -17.42408622 16.85289354 -12.57421875 9.34375 C-4.45521714 -1.13577615 -4.45521714 -1.13577615 0 0 Z " fill="#682A2C" transform="translate(125.57421875,136.65625)"/>
<path d="M0 0 C1.57007813 -0.01740234 1.57007813 -0.01740234 3.171875 -0.03515625 C14.67664041 0.00745399 25.70689914 1.9296623 34.33984375 9.97265625 C38.66562846 14.61573569 41.625 19.87426182 41.625 26.375 C42.285 26.375 42.945 26.375 43.625 26.375 C44.95757403 43.08342825 44.95757403 43.08342825 43.625 51.375 C42.965 51.375 42.305 51.375 41.625 51.375 C41.5321875 52.86 41.5321875 52.86 41.4375 54.375 C40.37270281 61.59520015 35.76934831 66.67066783 30.37109375 71.24609375 C28.46709778 72.47708891 26.84027864 72.95327299 24.625 73.375 C24.625 74.035 24.625 74.695 24.625 75.375 C17.08116965 78.70316045 9.54275069 78.58674513 1.4375 78.625 C0.36435547 78.645625 -0.70878906 78.66625 -1.81445312 78.6875 C-9.12506513 78.72288106 -15.43569978 77.67221935 -22.375 75.375 C-22.375 74.715 -22.375 74.055 -22.375 73.375 C-23.07625 73.148125 -23.7775 72.92125 -24.5 72.6875 C-32.11251545 69.21222121 -36.89324352 63.2927631 -39.76171875 55.6328125 C-43.15264862 43.149007 -42.63083243 28.06599191 -37.40234375 16.16015625 C-32.82249616 8.20201804 -23.73597284 3.39086873 -15.20483398 0.96826172 C-10.14740217 -0.09200567 -5.14853986 -0.05664653 0 0 Z " fill="#20B5EA" transform="translate(781.375,99.625)"/>
<path d="M0 0 C1.45764267 -0.00934319 1.45764267 -0.00934319 2.94473267 -0.01887512 C4.51969009 -0.0050605 4.51969009 -0.0050605 6.12646484 0.0090332 C7.21067719 0.0085347 8.29488953 0.00803619 9.41195679 0.00752258 C11.71020333 0.00986523 14.00845232 0.01960486 16.30664062 0.03613281 C19.80280902 0.05958243 23.29820728 0.05671254 26.79443359 0.05004883 C29.03011518 0.05563067 31.26579357 0.06274371 33.50146484 0.0715332 C35.05820419 0.07016609 35.05820419 0.07016609 36.64639282 0.06877136 C46.09981932 0.15972976 56.65746347 1.03310136 63.82177734 7.91918945 C68.42123651 13.96566948 68.18741221 21.09926785 67.21240234 28.37231445 C66.17732885 31.12609139 65.32616253 32.25855427 63.21240234 34.37231445 C62.55240234 34.37231445 61.89240234 34.37231445 61.21240234 34.37231445 C61.21240234 35.03231445 61.21240234 35.69231445 61.21240234 36.37231445 C61.78990234 36.59918945 62.36740234 36.82606445 62.96240234 37.05981445 C66.35462297 39.03860982 68.46733706 41.88218388 70.21240234 45.37231445 C71.51470796 60.59068582 71.51470796 60.59068582 66.71240234 66.8527832 C64.35581763 69.24005262 62.20117262 70.81295605 59.21240234 72.37231445 C58.22240234 72.37231445 57.23240234 72.37231445 56.21240234 72.37231445 C56.21240234 73.03231445 56.21240234 73.69231445 56.21240234 74.37231445 C49.36358436 76.46152998 43.03922056 76.64887607 35.90771484 76.6027832 C34.16722366 76.60209587 34.16722366 76.60209587 32.39157104 76.60139465 C29.9526059 76.59838617 27.51364243 76.59054222 25.07470703 76.578125 C21.32887023 76.55977265 17.58327959 76.55761618 13.83740234 76.55786133 C11.46500436 76.55294922 9.09260806 76.54712225 6.72021484 76.5402832 C5.59632355 76.53917038 4.47243225 76.53805756 3.31448364 76.53691101 C2.27935638 76.53053116 1.24422913 76.52415131 0.17773438 76.51757812 C-0.73523407 76.51376633 -1.64820251 76.50995453 -2.58883667 76.50602722 C-4.78759766 76.37231445 -4.78759766 76.37231445 -6.78759766 75.37231445 C-7.92284257 71.9665797 -7.92846294 69.33719859 -7.94873047 65.74536133 C-7.95369537 65.07674576 -7.95866028 64.40813019 -7.96377563 63.71925354 C-7.97836858 61.50984669 -7.98519315 59.30051155 -7.99072266 57.09106445 C-7.99647489 55.55554197 -8.00223261 54.02001951 -8.00799561 52.48449707 C-8.01849632 49.26659816 -8.02434559 46.04872418 -8.02783203 42.83081055 C-8.03332586 38.70463668 -8.05737642 34.57879129 -8.08580399 30.45272064 C-8.10440952 27.28203358 -8.10963476 24.11142614 -8.11116791 20.94068909 C-8.11419788 19.41921689 -8.12223803 17.8977462 -8.13535309 16.37632751 C-8.15237658 14.25038441 -8.15054342 12.12525086 -8.14404297 9.99926758 C-8.14951141 8.18416687 -8.14951141 8.18416687 -8.15509033 6.33239746 C-7.78759766 3.37231445 -7.78759766 3.37231445 -6.56454468 1.48139954 C-4.24572532 0.03410374 -2.72893859 -0.00201029 0 0 Z " fill="#20B5EA" transform="translate(402.78759765625,100.627685546875)"/>
<path d="M0 0 C2.46825953 0.01086143 4.93581323 -0.00002643 7.40405273 -0.01269531 C8.98022621 -0.01137596 10.55639925 -0.00881824 12.13256836 -0.00488281 C13.23405968 -0.01095551 13.23405968 -0.01095551 14.35780334 -0.01715088 C18.07949599 0.01726266 19.69990619 0.14157157 22.87866211 2.26074219 C23.25961304 5.22119141 23.25961304 5.22119141 23.2668457 9.06542969 C23.27210266 9.76476624 23.27735962 10.46410278 23.28277588 11.18463135 C23.29600596 13.50189388 23.28722772 15.81847238 23.27709961 18.13574219 C23.27911949 19.74235161 23.28203021 21.34896013 23.28579712 22.95556641 C23.29022453 26.32495847 23.2837762 29.69411217 23.26977539 33.06347656 C23.25268306 37.38824434 23.26252204 41.71245365 23.28049278 46.03720093 C23.2913195 49.35543038 23.28788945 52.67352685 23.28010941 55.99176025 C23.27810431 57.58660955 23.28057751 59.18147083 23.28754807 60.77630615 C23.29514457 63.00321559 23.28358501 65.22921338 23.2668457 67.45605469 C23.26445892 68.72465332 23.26207214 69.99325195 23.25961304 71.30029297 C23.13389923 72.27724121 23.00818542 73.25418945 22.87866211 74.26074219 C19.28255242 76.65814865 17.57773883 76.50061911 13.31616211 76.44824219 C12.15987305 76.44179687 11.00358398 76.43535156 9.81225586 76.42871094 C6.87866211 76.26074219 6.87866211 76.26074219 4.87866211 75.26074219 C2.97836973 69.55986506 3.87866211 63.26999431 3.87866211 57.26074219 C-8.66133789 57.59074219 -21.20133789 57.92074219 -34.12133789 58.26074219 C-35.77133789 63.54074219 -37.42133789 68.82074219 -39.12133789 74.26074219 C-42.78027294 76.70003222 -45.52412122 76.52363891 -49.74633789 76.44824219 C-50.43985352 76.44759766 -51.13336914 76.44695312 -51.84790039 76.44628906 C-56.98090532 76.40117476 -56.98090532 76.40117476 -58.12133789 75.26074219 C-58.45046046 69.87821676 -57.6033328 65.42510981 -56.12133789 60.32324219 C-55.93055664 59.63939453 -55.73977539 58.95554688 -55.54321289 58.25097656 C-55.07728852 56.58529692 -54.60045378 54.92267544 -54.12133789 53.26074219 C-53.46133789 53.26074219 -52.80133789 53.26074219 -52.12133789 53.26074219 C-52.02336914 52.05546875 -51.92540039 50.85019531 -51.82446289 49.60839844 C-51.10316637 43.16338703 -49.48608347 36.96826493 -47.87133789 30.69824219 C-47.58387695 29.51810547 -47.29641602 28.33796875 -47.00024414 27.12207031 C-44.27084598 16.47265 -40.97152999 9.60476645 -31.55883789 3.63574219 C-21.53810744 -0.37254999 -10.62414665 -0.05582051 0 0 Z " fill="#20B5EA" transform="translate(617.121337890625,100.7392578125)"/>
<path d="M0 0 C0.90298828 -0.02449219 1.80597656 -0.04898438 2.73632812 -0.07421875 C6.67521055 -0.0915834 9.43672683 -0.01836284 12.9609375 1.828125 C16.1265982 5.44919654 18.55547193 9.36812746 21 13.5 C21.75313477 14.73556641 21.75313477 14.73556641 22.52148438 15.99609375 C26.1875 22.09115646 26.1875 22.09115646 26.1875 24.375 C27.1775 24.705 28.1675 25.035 29.1875 25.375 C30.65795898 27.21337891 30.65795898 27.21337891 32.18359375 29.6015625 C32.74240234 30.46910156 33.30121094 31.33664063 33.87695312 32.23046875 C34.45380859 33.14441406 35.03066406 34.05835938 35.625 35 C36.19798828 35.89074219 36.77097656 36.78148437 37.36132812 37.69921875 C40.44606169 42.51978053 43.36753819 47.39590358 46.1875 52.375 C46.19336624 51.75303741 46.19923248 51.13107483 46.20527649 50.49026489 C46.26906397 44.03405841 46.35344469 37.57835722 46.44995117 31.12255859 C46.48326665 28.7111679 46.51127768 26.29969798 46.53393555 23.88818359 C46.56735972 20.42771542 46.61966953 16.96797773 46.67578125 13.5078125 C46.68217117 12.42444611 46.6885611 11.34107971 46.69514465 10.22488403 C46.71493881 9.2239975 46.73473297 8.22311096 46.75512695 7.19189453 C46.76623001 6.30809113 46.77733307 5.42428772 46.78877258 4.51370239 C46.92035263 3.8079306 47.05193268 3.10215881 47.1875 2.375 C50.74526212 0.00315858 52.46770607 0.07675606 56.6875 0.0625 C57.8321875 0.04574219 58.976875 0.02898437 60.15625 0.01171875 C63.1875 0.375 63.1875 0.375 64.85467529 1.48352051 C66.84146953 4.30308149 66.55425779 6.57900782 66.54394531 10.00195312 C66.54598969 10.6705687 66.54803406 11.33918427 66.55014038 12.02806091 C66.55314797 14.2377357 66.53467226 16.44666392 66.515625 18.65625 C66.51256705 20.19177058 66.5106912 21.72729394 66.50994873 23.26281738 C66.50534574 26.4808209 66.49092071 29.69857417 66.46875 32.91650391 C66.44046767 37.04257034 66.42953838 41.16843965 66.4250679 45.29459381 C66.42091181 48.46529107 66.41109273 51.63594846 66.39919281 54.80662537 C66.3934933 56.32807598 66.38873354 57.84953041 66.38492584 59.37098694 C66.37805425 61.49674208 66.36441755 63.62234155 66.34863281 65.74804688 C66.34180481 66.95811401 66.33497681 68.16818115 66.32794189 69.41491699 C66.1875 72.375 66.1875 72.375 65.1875 75.375 C61.32513565 77.30618218 56.62408819 76.69034465 52.375 76.75 C50.87743164 76.80607422 50.87743164 76.80607422 49.34960938 76.86328125 C41.99101255 76.95152558 41.99101255 76.95152558 38.2421875 74.26171875 C36.04829773 71.17942875 34.03055377 68.08186959 32.125 64.8125 C29.56477429 60.35561925 29.56477429 60.35561925 26.24609375 56.484375 C23.27014161 53.43501228 21.40003348 49.88107704 19.3125 46.1875 C16.67754739 41.56178666 13.99247594 37.01748656 11.02294922 32.59643555 C10.48983124 31.80134079 9.95671326 31.00624603 9.40744019 30.1870575 C9.00485992 29.58907852 8.60227966 28.99109955 8.1875 28.375 C8.16244385 29.69218018 8.1373877 31.00936035 8.11157227 32.36645508 C8.01749118 37.24741562 7.91727208 42.12823408 7.81518555 47.0090332 C7.77183936 49.1226062 7.73016406 51.23621414 7.69018555 53.34985352 C7.63247551 56.38568664 7.56878299 59.42134389 7.50390625 62.45703125 C7.47883751 63.8774749 7.47883751 63.8774749 7.45326233 65.32661438 C7.43331711 66.20730087 7.41337189 67.08798737 7.39282227 67.99536133 C7.37727798 68.77035477 7.3617337 69.54534821 7.34571838 70.34382629 C7.1875 72.375 7.1875 72.375 6.1875 75.375 C3.21708551 76.86020725 0.48985553 76.5455822 -2.8125 76.5625 C-4.6996875 76.58376953 -4.6996875 76.58376953 -6.625 76.60546875 C-9.8125 76.375 -9.8125 76.375 -11.8125 74.375 C-12.06646729 71.41455078 -12.06646729 71.41455078 -12.07128906 67.5703125 C-12.0747937 66.87097595 -12.07829834 66.1716394 -12.08190918 65.45111084 C-12.09072876 63.13397362 -12.0848767 60.81714045 -12.078125 58.5 C-12.07947159 56.89339133 -12.08141207 55.28678305 -12.08392334 53.68017578 C-12.0868749 50.31083298 -12.08257597 46.94159613 -12.07324219 43.57226562 C-12.06184758 39.24760506 -12.06840689 34.92319271 -12.08038712 30.59854126 C-12.08760488 27.2803357 -12.08531819 23.96218925 -12.08013153 20.64398193 C-12.0787948 19.049133 -12.08044358 17.45427875 -12.08509064 15.85943604 C-12.09015456 13.63270802 -12.08244788 11.40638524 -12.07128906 9.1796875 C-12.06969788 7.91108887 -12.06810669 6.64249023 -12.06646729 5.33544922 C-11.47564414 -1.55166583 -5.42307325 0.00764351 0 0 Z " fill="#20B5EA" transform="translate(848.8125,100.625)"/>
<path d="M0 0 C3.36482996 3.15558843 5.80942238 5.96622932 7.8125 10.125 C8.23144531 10.97320312 8.65039062 11.82140625 9.08203125 12.6953125 C10 15 10 15 10 18 C10.66 18 11.32 18 12 18 C14.06075906 23.11100958 14.30393244 27.52178446 14.25 32.9375 C14.26160156 34.09668945 14.26160156 34.09668945 14.2734375 35.27929688 C14.25672201 40.22290235 13.57313475 44.31180873 12 49 C11.34 49 10.68 49 10 49 C9.95875 49.78375 9.9175 50.5675 9.875 51.375 C7.67096527 60.50600104 0.95793466 67.97464743 -5 75 C-6.10408203 76.32451172 -6.10408203 76.32451172 -7.23046875 77.67578125 C-7.97941406 78.54589844 -8.72835937 79.41601562 -9.5 80.3125 C-10.1703125 81.09238281 -10.840625 81.87226563 -11.53125 82.67578125 C-14.71598268 85.67406597 -18.23463576 87.80257501 -22 90 C-22.4940332 89.70754395 -22.98806641 89.41508789 -23.49707031 89.11376953 C-25.74722684 87.78278769 -27.99859905 86.45387569 -30.25 85.125 C-31.02730469 84.66480469 -31.80460937 84.20460938 -32.60546875 83.73046875 C-33.35957031 83.28574219 -34.11367187 82.84101563 -34.890625 82.3828125 C-35.58188477 81.97434082 -36.27314453 81.56586914 -36.98535156 81.14501953 C-38.95916302 80.02320958 -40.96020237 78.9959012 -43 78 C-43 77.34 -43 76.68 -43 76 C-44.24910156 75.62875 -44.24910156 75.62875 -45.5234375 75.25 C-49.46012563 73.83456157 -52.9678817 72.01068656 -56.625 70 C-62.26856538 66.91589738 -62.26856538 66.91589738 -68 64 C-66.89398438 63.4121875 -66.89398438 63.4121875 -65.765625 62.8125 C-62.74259825 60.83130733 -60.97646158 58.83667697 -58.75 56 C-57.59371094 54.5459375 -57.59371094 54.5459375 -56.4140625 53.0625 C-55.61742187 52.051875 -54.82078125 51.04125 -54 50 C-52.37962281 47.99625282 -50.75479196 45.99609699 -49.125 44 C-48.40570313 43.113125 -47.68640625 42.22625 -46.9453125 41.3125 C-43.76856365 37.53612385 -43.76856365 37.53612385 -42 36 C-41.34 36 -40.68 36 -40 36 C-39.74041504 35.42040527 -39.48083008 34.84081055 -39.21337891 34.24365234 C-36.99452871 30.14078851 -33.56354532 26.99293716 -30.375 23.625 C-29.68792969 22.8825 -29.00085938 22.14 -28.29296875 21.375 C-21.75532391 14.43258541 -14.53305581 9.19306525 -6.5 4.125 C-5.86835938 3.7228125 -5.23671875 3.320625 -4.5859375 2.90625 C-3.0591119 1.93463371 -1.52982637 0.96688465 0 0 Z " fill="#009B4F" transform="translate(189,71)"/>
<path d="M0 0 C1.27141846 -0.00637985 2.54283691 -0.0127597 3.8527832 -0.01933289 C5.24169883 -0.02086138 6.63061497 -0.02197544 8.01953125 -0.02270508 C9.44295282 -0.02591826 10.86637405 -0.02928238 12.28979492 -0.03279114 C15.27230597 -0.03877759 18.25478806 -0.04063147 21.23730469 -0.04003906 C25.06074025 -0.03993733 28.88399058 -0.05360335 32.7073822 -0.07081127 C35.64645239 -0.08192255 38.58547761 -0.08395856 41.52456665 -0.08342934 C42.93438354 -0.08461024 44.34420157 -0.08903819 45.7539978 -0.0967617 C47.72399509 -0.10654587 49.69404668 -0.10242337 51.6640625 -0.09765625 C53.34592651 -0.09979378 53.34592651 -0.09979378 55.06176758 -0.10197449 C57.83203125 0.14526367 57.83203125 0.14526367 60.83203125 2.14526367 C61.1953125 4.45776367 61.1953125 4.45776367 61.14453125 7.14526367 C61.14066406 8.03213867 61.13679687 8.91901367 61.1328125 9.83276367 C60.83203125 12.14526367 60.83203125 12.14526367 58.83203125 14.14526367 C56.73129272 14.38577271 56.73129272 14.38577271 54.10693359 14.37231445 C53.12606781 14.37216339 52.14520203 14.37201233 51.13461304 14.37185669 C50.07312042 14.36153412 49.01162781 14.35121155 47.91796875 14.34057617 C46.83319244 14.33774628 45.74841614 14.33491638 44.63076782 14.33200073 C41.15607812 14.32077945 37.68164343 14.29567129 34.20703125 14.27026367 C31.85547246 14.26023639 29.50390965 14.25111011 27.15234375 14.24291992 C21.37880755 14.22083374 15.60546268 14.18629057 9.83203125 14.14526367 C10.32703125 22.06526367 10.32703125 22.06526367 10.83203125 30.14526367 C25.02203125 30.47526367 39.21203125 30.80526367 53.83203125 31.14526367 C55.00876323 33.49872763 54.99826991 35.02586697 55.01953125 37.64526367 C55.03371094 38.43932617 55.04789063 39.23338867 55.0625 40.05151367 C54.83203125 42.14526367 54.83203125 42.14526367 52.83203125 44.14526367 C50.99703979 44.42373657 50.99703979 44.42373657 48.74951172 44.46411133 C47.48843094 44.49391586 47.48843094 44.49391586 46.20187378 44.52432251 C45.29349762 44.53587372 44.38512146 44.54742493 43.44921875 44.55932617 C42.51981476 44.57869232 41.59041077 44.59805847 40.63284302 44.61801147 C37.65766645 44.67790052 34.68245137 44.72422977 31.70703125 44.77026367 C29.69269125 44.80843488 27.67836771 44.8474861 25.6640625 44.88745117 C20.7201855 44.98360968 15.77623208 45.06760607 10.83203125 45.14526367 C10.50203125 50.42526367 10.17203125 55.70526367 9.83203125 61.14526367 C12.042854 61.12955322 12.042854 61.12955322 14.29833984 61.11352539 C19.75127751 61.07740576 25.20420454 61.05439253 30.65722656 61.03540039 C33.02020036 61.02532444 35.38316164 61.01166338 37.74609375 60.99438477 C41.13675013 60.97020643 44.52724209 60.95879668 47.91796875 60.94995117 C48.97946136 60.9396286 50.04095398 60.92930603 51.13461304 60.91867065 C52.60591171 60.91844406 52.60591171 60.91844406 54.10693359 60.91821289 C54.97297211 60.91377167 55.83901062 60.90933044 56.73129272 60.90475464 C58.83203125 61.14526367 58.83203125 61.14526367 60.83203125 63.14526367 C61.1328125 65.67651367 61.1328125 65.67651367 61.14453125 68.64526367 C61.16128906 69.62495117 61.17804688 70.60463867 61.1953125 71.61401367 C61.07542969 72.44932617 60.95554687 73.28463867 60.83203125 74.14526367 C57.30007644 76.49990021 55.84604215 76.39349859 51.6640625 76.38818359 C50.39264404 76.39126022 49.12122559 76.39433685 47.8112793 76.39750671 C46.42236145 76.39060853 45.03344539 76.38334153 43.64453125 76.37573242 C42.22111045 76.37454012 40.79768885 76.37408756 39.37426758 76.37434387 C36.39171418 76.37277996 33.40928098 76.36449765 30.42675781 76.35107422 C26.60336572 76.33408453 22.78010571 76.33025996 18.9566803 76.3310194 C16.01760599 76.33074749 13.07856055 76.3252628 10.13949585 76.31801796 C8.72968769 76.31483551 7.31987626 76.31286487 5.9100647 76.31212425 C3.94003117 76.30995625 1.97000992 76.30041266 0 76.29052734 C-1.12124268 76.28671555 -2.24248535 76.28290375 -3.39770508 76.27897644 C-6.16796875 76.14526367 -6.16796875 76.14526367 -9.16796875 75.14526367 C-10.30724125 71.72744619 -10.29499915 69.10716224 -10.29736328 65.50244141 C-10.2991156 64.83221954 -10.30086792 64.16199768 -10.30267334 63.47146606 C-10.30707284 61.25723681 -10.30416089 59.04308748 -10.30078125 56.82885742 C-10.30145476 55.29093917 -10.30242517 53.75302103 -10.30368042 52.21510315 C-10.30515475 48.99300116 -10.30301104 45.77092689 -10.29833984 42.54882812 C-10.29263792 38.41370917 -10.29592616 34.27865506 -10.30191231 30.14353848 C-10.30552097 26.96860768 -10.30437801 23.79369232 -10.30178452 20.61876106 C-10.30111634 19.09368952 -10.30193986 17.56861659 -10.30426407 16.04354668 C-10.30679611 13.91522362 -10.30294243 11.78700654 -10.29736328 9.65869141 C-10.29656769 8.44640366 -10.29577209 7.23411591 -10.29495239 5.98509216 C-10.16796875 3.14526367 -10.16796875 3.14526367 -9.16796875 1.14526367 C-5.8856935 0.05117192 -3.45566001 0.01174793 0 0 Z " fill="#20B5EA" transform="translate(494.16796875,100.854736328125)"/>
<path d="M0 0 C1.28068359 -0.020625 2.56136719 -0.04125 3.88085938 -0.0625 C11.08671316 -0.09216898 17.05925112 0.3669847 23.6875 3.25 C24.42774414 3.54044189 25.16798828 3.83088379 25.93066406 4.13012695 C31.53822238 6.38611179 34.11718662 9.87771409 36.6875 15.25 C37.99515478 19.17296433 37.8846417 22.11002433 37.6875 26.25 C34.84187318 29.09562682 32.77864437 28.61741221 28.8125 28.6875 C27.57757812 28.72746094 26.34265625 28.76742187 25.0703125 28.80859375 C21.6875 28.25 21.6875 28.25 19.33203125 25.88671875 C18.25634276 24.16204006 17.22630635 22.4078203 16.25 20.625 C14.25392745 17.59096972 13.03671129 16.7423068 9.6875 15.25 C6.03569972 14.80879247 2.42417952 14.83151859 -1.25 14.875 C-2.22646484 14.86339844 -3.20292969 14.85179688 -4.20898438 14.83984375 C-11.76412552 14.83751321 -11.76412552 14.83751321 -18.3125 18.25 C-22.5807656 24.53044796 -22.90653427 30.99264204 -22.75 38.375 C-22.75708984 39.32503906 -22.76417969 40.27507812 -22.77148438 41.25390625 C-22.71964015 47.00462706 -22.07076567 51.17856776 -19.3125 56.25 C-13.91673836 61.30852654 -7.46113864 60.53464894 -0.5 60.625 C1.12131836 60.68107422 1.12131836 60.68107422 2.77539062 60.73828125 C9.50744279 60.91644316 9.50744279 60.91644316 15.3046875 57.9296875 C17.74999044 55.17972386 19.76400307 52.3845876 21.6875 49.25 C23.62091947 47.31658053 27.06229121 48.07550867 29.625 48.0625 C30.89214844 48.04832031 32.15929687 48.03414062 33.46484375 48.01953125 C36.6875 48.25 36.6875 48.25 38.6875 50.25 C39.22260031 55.70802318 38.27186211 59.43773952 35.6875 64.25 C32.98435296 67.29970436 30.13979695 70.06354526 26.6875 72.25 C25.6975 72.25 24.7075 72.25 23.6875 72.25 C23.6875 72.91 23.6875 73.57 23.6875 74.25 C18.72875905 75.85548256 14.54890601 76.50614869 9.28515625 76.515625 C8.60376083 76.51753845 7.92236542 76.5194519 7.22032166 76.52142334 C5.7892113 76.52277508 4.35808825 76.51914988 2.92700195 76.51074219 C0.75899162 76.50004437 -1.40818715 76.51066297 -3.57617188 76.5234375 C-10.42921841 76.52935167 -16.76094291 76.40253245 -23.3125 74.25 C-23.3125 73.59 -23.3125 72.93 -23.3125 72.25 C-24.34375 72.023125 -25.375 71.79625 -26.4375 71.5625 C-31.95010631 69.90982728 -35.07957749 67.32983657 -37.984375 62.4296875 C-44.32925068 50.13271416 -45.46713715 35.62476422 -42.1875 22.0625 C-39.63454594 14.43959492 -35.56409423 8.020829 -28.3125 4.25 C-19.02449469 0.12821451 -10.04948041 0.04009768 0 0 Z " fill="#20B5EA" transform="translate(695.3125,100.75)"/>
<path d="M0 0 C0.928125 0.37125 1.85625 0.7425 2.8125 1.125 C7.36514348 5.02726584 9.08495419 11.21937403 10 17 C10.66267999 26.00989904 9.78408857 33.87727703 5.4375 41.875 C-0.79798322 47.3110623 -8.00623859 48.64520265 -16.10546875 48.3125 C-23.34730782 47.53065503 -28.08287937 45.76407596 -32.80859375 40.109375 C-37.49824325 31.806389 -37.21320955 20.83857094 -35.3125 11.69140625 C-33.39007601 5.78796257 -31.33146122 2.24069212 -26 -1 C-17.18339448 -4.56055223 -8.58011452 -3.62611983 0 0 Z " fill="#FDFEFE" transform="translate(796,116)"/>
<path d="M0 0 C4.24923584 1.66674701 8.21507751 3.6966694 12.23828125 5.84375 C13.01365234 6.24722656 13.78902344 6.65070313 14.58789062 7.06640625 C15.32458984 7.45699219 16.06128906 7.84757813 16.8203125 8.25 C17.48909424 8.60384766 18.15787598 8.95769531 18.84692383 9.32226562 C20.42578125 10.34375 20.42578125 10.34375 21.42578125 12.34375 C23.24967398 13.33886587 25.11106316 14.26580487 26.98828125 15.15625 C32.03495931 17.61024997 36.73190724 20.27467853 41.42578125 23.34375 C40.02576707 27.54379254 36.9829398 29.1033455 33.48828125 31.53125 C32.84181641 31.99466797 32.19535156 32.45808594 31.52929688 32.93554688 C26.69557138 36.34375 26.69557138 36.34375 24.42578125 36.34375 C24.09578125 37.33375 23.76578125 38.32375 23.42578125 39.34375 C20.65234375 40.95703125 20.65234375 40.95703125 17.05078125 42.65625 C15.76991202 43.26891088 14.48997352 43.88352113 13.2109375 44.5 C12.57172363 44.80679688 11.93250977 45.11359375 11.27392578 45.4296875 C8.62284685 46.74086841 6.06007703 48.19687214 3.48828125 49.65625 C-0.50027917 51.86883899 -4.12720333 53.35552435 -8.57421875 54.34375 C-15.21013877 44.00955044 -20.46252707 33.98867177 -18.57421875 21.34375 C-16.30282266 14.81348624 -8.64475021 -2.203821 0 0 Z " fill="#2F2C30" transform="translate(125.57421875,136.65625)"/>
<path d="M0 0 C2.31 0 4.62 0 7 0 C7 0.66 7 1.32 7 2 C8.175625 2.04125 9.35125 2.0825 10.5625 2.125 C15.65223268 2.7759072 18.78985437 5.06068002 22 9 C25.23145428 16.44639465 24.81947347 24.45362464 22.0546875 31.984375 C19.84327943 36.21062153 16.50818551 38.4972715 12 40 C9.06687281 40.24904978 6.13013393 40.2311822 3.1875 40.25 C2.39279297 40.270625 1.59808594 40.29125 0.77929688 40.3125 C-5.32605935 40.35289938 -9.29357948 39.02981539 -14.25 35.3125 C-18.54860903 29.63219521 -18.70652942 21.86342869 -18 15 C-16.31863172 9.30202973 -14.04353145 6.17555684 -9 3 C-5.9965689 2.33747843 -3.07117359 2.07507313 0 2 C0 1.34 0 0.68 0 0 Z " fill="#BF077C" transform="translate(799,199)"/>
<path d="M0 0 C0.99193359 0.00322266 1.98386719 0.00644531 3.00585938 0.00976562 C3.97072266 -0.00634766 4.93558594 -0.02246094 5.9296875 -0.0390625 C12.50352731 -0.04350128 19.8691916 0.20286487 25.06665039 4.73901367 C29.11138042 9.3905608 29.61684322 13.14737616 29.69335938 19.13476562 C29.71914063 20.33746094 29.74492188 21.54015625 29.77148438 22.77929688 C29.31670971 27.68978044 27.69451931 30.95736387 24.38085938 34.57226562 C17.33494385 38.76983232 9.4317011 38.50949475 1.44335938 38.57226562 C0.16887939 38.58628418 0.16887939 38.58628418 -1.13134766 38.60058594 C-2.33186768 38.59430176 -2.33186768 38.59430176 -3.55664062 38.58789062 C-4.27851563 38.58563477 -5.00039063 38.58337891 -5.74414062 38.58105469 C-7.55664062 38.32226562 -7.55664062 38.32226562 -9.55664062 36.32226562 C-9.75621032 33.7647611 -9.83650889 31.31788422 -9.82226562 28.75976562 C-9.82417908 28.01267334 -9.82609253 27.26558105 -9.82806396 26.49584961 C-9.8294256 24.91552392 -9.82573062 23.33518704 -9.81738281 21.75488281 C-9.80668262 19.3317764 -9.81727842 16.90941139 -9.83007812 14.48632812 C-9.82875653 12.95247232 -9.82619412 11.41861697 -9.82226562 9.88476562 C-9.82631409 9.15765381 -9.83036255 8.43054199 -9.83453369 7.68139648 C-9.76169876 -0.10658872 -6.85747673 0.05141939 0 0 Z " fill="#BF0B7E" transform="translate(498.556640625,200.677734375)"/>
<path d="M0 0 C1.60875 -0.00386719 1.60875 -0.00386719 3.25 -0.0078125 C6 0.125 6 0.125 8 1.125 C8 2.115 8 3.105 8 4.125 C8.66 4.125 9.32 4.125 10 4.125 C10.63228516 5.94837891 10.63228516 5.94837891 11.27734375 7.80859375 C11.83057808 9.39328192 12.38397172 10.97791448 12.9375 12.5625 C13.35418945 13.76616211 13.35418945 13.76616211 13.77929688 14.99414062 C14.04677734 15.75791016 14.31425781 16.52167969 14.58984375 17.30859375 C14.83597412 18.01556396 15.08210449 18.72253418 15.33569336 19.45092773 C15.87467975 21.13182632 15.87467975 21.13182632 17 22.125 C17.30236572 21.23192139 17.30236572 21.23192139 17.61083984 20.32080078 C18.52617199 17.62843093 19.45046501 14.93922282 20.375 12.25 C20.69210937 11.31285156 21.00921875 10.37570313 21.3359375 9.41015625 C21.6453125 8.51425781 21.9546875 7.61835938 22.2734375 6.6953125 C22.69761963 5.45418701 22.69761963 5.45418701 23.13037109 4.18798828 C24 2.125 24 2.125 26 0.125 C29.22265625 -0.10546875 29.22265625 -0.10546875 33.0625 -0.0625 C34.96708984 -0.05283203 34.96708984 -0.05283203 36.91015625 -0.04296875 C40 0.125 40 0.125 41 1.125 C41.10095564 3.77956193 41.13970998 6.40755176 41.1328125 9.0625 C41.13376923 9.857771 41.13472595 10.65304199 41.13571167 11.47241211 C41.13639343 13.1570646 41.13453943 14.84171971 41.13037109 16.52636719 C41.12502275 19.11399197 41.13031619 21.70144316 41.13671875 24.2890625 C41.13605797 25.92187539 41.1347768 27.55468816 41.1328125 29.1875 C41.13483673 29.96665771 41.13686096 30.74581543 41.13894653 31.54858398 C41.11495105 37.01004895 41.11495105 37.01004895 40 38.125 C38.1875 38.2578125 38.1875 38.2578125 36 38.25 C35.278125 38.25257813 34.55625 38.25515625 33.8125 38.2578125 C32 38.125 32 38.125 31 37.125 C30.84213692 35.27325294 30.74892644 33.4159089 30.68359375 31.55859375 C30.64169922 30.43388672 30.59980469 29.30917969 30.55664062 28.15039062 C30.51732422 26.96638672 30.47800781 25.78238281 30.4375 24.5625 C30.39431641 23.37462891 30.35113281 22.18675781 30.30664062 20.96289062 C30.20016454 18.01705216 30.09815159 15.0711257 30 12.125 C29.76812988 12.84155762 29.53625977 13.55811523 29.29736328 14.29638672 C28.24616181 17.53299456 27.18570693 20.7664955 26.125 24 C25.76019531 25.12792969 25.39539063 26.25585938 25.01953125 27.41796875 C24.66503906 28.49433594 24.31054688 29.57070312 23.9453125 30.6796875 C23.62062988 31.67468262 23.29594727 32.66967773 22.96142578 33.69482422 C22 36.125 22 36.125 20 38.125 C16.92430852 38.45220122 14.86178153 38.65989888 12.1875 37 C10.57771731 34.45823785 10.32890991 32.0851892 10 29.125 C9.34 29.125 8.68 29.125 8 29.125 C6.35 24.175 4.7 19.225 3 14.125 C2.95101563 15.68992188 2.90203125 17.25484375 2.8515625 18.8671875 C2.77654271 20.91147678 2.70099455 22.95574672 2.625 25 C2.57859375 26.54880859 2.57859375 26.54880859 2.53125 28.12890625 C2.47324219 29.60810547 2.47324219 29.60810547 2.4140625 31.1171875 C2.3826416 32.02839355 2.3512207 32.93959961 2.31884766 33.87841797 C2 36.125 2 36.125 0 38.125 C-3 38.375 -3 38.375 -6 38.125 C-8 36.125 -8 36.125 -8.22705078 32.68505859 C-8.22673369 31.21448021 -8.21540987 29.74387858 -8.1953125 28.2734375 C-8.1924826 27.49940582 -8.18965271 26.72537415 -8.18673706 25.92788696 C-8.17552754 23.45176843 -8.15042203 20.9760095 -8.125 18.5 C-8.11497118 16.82292188 -8.10584516 15.14583811 -8.09765625 13.46875 C-8.07558574 9.35402777 -8.04105102 5.23957489 -8 1.125 C-5.26922124 -0.24038938 -3.04439633 -0.00731826 0 0 Z " fill="#BF0A7D" transform="translate(399,200.875)"/>
<path d="M0 0 C1.75280273 -0.0309375 1.75280273 -0.0309375 3.54101562 -0.0625 C11.37002046 -0.09782546 17.74807803 0.19047934 24 5.375 C25.79690107 8.96880214 25.75217717 11.30994171 25.12109375 15.2265625 C24.4375 17.25 24.4375 17.25 22.0625 19.25 C20.20287658 19.95842797 18.32537248 20.62070917 16.4375 21.25 C16.9325 21.683125 17.4275 22.11625 17.9375 22.5625 C19.4375 24.25 19.4375 24.25 19.4375 27.25 C20.4275 27.58 21.4175 27.91 22.4375 28.25 C23.60546875 29.7734375 23.60546875 29.7734375 24.625 31.625 C24.96917969 32.23085937 25.31335938 32.83671875 25.66796875 33.4609375 C26.4375 35.25 26.4375 35.25 26.4375 38.25 C18.47796243 39.03034682 18.47796243 39.03034682 14.6875 36.1875 C13.945 35.218125 13.2025 34.24875 12.4375 33.25 C11.97214844 32.64929688 11.50679687 32.04859375 11.02734375 31.4296875 C7.4375 26.64989554 7.4375 26.64989554 7.4375 24.25 C4.1375 23.92 0.8375 23.59 -2.5625 23.25 C-2.55089844 24.24902344 -2.53929687 25.24804688 -2.52734375 26.27734375 C-2.51832031 27.56769531 -2.50929688 28.85804688 -2.5 30.1875 C-2.48839844 31.47527344 -2.47679687 32.76304687 -2.46484375 34.08984375 C-2.5625 37.25 -2.5625 37.25 -3.5625 38.25 C-9.29861111 38.52314815 -9.29861111 38.52314815 -11.5625 38.25 C-14.08834607 35.72415393 -13.79954324 34.15793507 -13.81474304 30.7127533 C-13.80755753 29.96063065 -13.80037201 29.208508 -13.79296875 28.43359375 C-13.79251053 27.66193375 -13.79205231 26.89027374 -13.7915802 26.0952301 C-13.78855787 24.46361758 -13.78067213 22.83200795 -13.76831055 21.20043945 C-13.75004787 18.69407 -13.74780088 16.18806967 -13.74804688 13.68164062 C-13.74313198 12.09895512 -13.73730379 10.51627213 -13.73046875 8.93359375 C-13.72935593 8.17944687 -13.7282431 7.42529999 -13.72709656 6.64830017 C-13.64294267 -2.50853259 -7.8484214 0.03384764 0 0 Z " fill="#BF097D" transform="translate(751.5625,200.75)"/>
<path d="M0 0 C1.16402344 -0.02900391 2.32804688 -0.05800781 3.52734375 -0.08789062 C10.62270402 -0.14012148 15.40995244 0.34524747 21.375 4.3125 C24.20070111 8.99256746 25.04000399 12.89746754 24.375 18.3125 C22.96418948 22.41598652 21.38600819 25.48773016 18 28.25 C12.76991457 30.36693934 7.5864225 30.4277021 2 30.375 C0.13214844 30.36146484 0.13214844 30.36146484 -1.7734375 30.34765625 C-3.18496094 30.33025391 -3.18496094 30.33025391 -4.625 30.3125 C-4.604375 31.446875 -4.58375 32.58125 -4.5625 33.75 C-4.625 37.3125 -4.625 37.3125 -5.625 38.3125 C-12.15042373 38.54978814 -12.15042373 38.54978814 -14.625 37.3125 C-14.625 25.4325 -14.625 13.5525 -14.625 1.3125 C-10.34470066 -0.82764967 -4.70131283 0.03828431 0 0 Z " fill="#BF077C" transform="translate(889.625,200.6875)"/>
<path d="M0 0 C0.96615234 0.00064453 1.93230469 0.00128906 2.92773438 0.00195312 C10.04697998 0.04697998 10.04697998 0.04697998 11.1875 1.1875 C11.28845564 3.84206193 11.32720998 6.47005176 11.3203125 9.125 C11.32126923 9.920271 11.32222595 10.71554199 11.32321167 11.53491211 C11.32389343 13.2195646 11.32203943 14.90421971 11.31787109 16.58886719 C11.31252275 19.17649197 11.31781619 21.76394316 11.32421875 24.3515625 C11.32355797 25.98437539 11.3222768 27.61718816 11.3203125 29.25 C11.32233673 30.02915771 11.32436096 30.80831543 11.32644653 31.61108398 C11.30245105 37.07254895 11.30245105 37.07254895 10.1875 38.1875 C6.6875 38.3125 6.6875 38.3125 3.1875 38.1875 C2.6925 37.6925 2.6925 37.6925 2.1875 37.1875 C2.1875 34.5475 2.1875 31.9075 2.1875 29.1875 C-4.4125 29.1875 -11.0125 29.1875 -17.8125 29.1875 C-18.1425 31.4975 -18.4725 33.8075 -18.8125 36.1875 C-20.8125 38.1875 -20.8125 38.1875 -24.4375 38.3125 C-25.55125 38.27125 -26.665 38.23 -27.8125 38.1875 C-29.86507826 32.44980762 -27.15473807 26.40300798 -25.6875 20.75 C-25.39101563 19.52216797 -25.09453125 18.29433594 -24.7890625 17.02929688 C-21.84924496 5.58767649 -21.84924496 5.58767649 -16.8125 2.1875 C-11.45025454 -0.45787442 -5.84648854 -0.0756183 0 0 Z " fill="#BE037B" transform="translate(623.8125,200.8125)"/>
<path d="M0 0 C0.79470703 -0.020625 1.58941406 -0.04125 2.40820312 -0.0625 C7.43508064 -0.09576304 10.82653513 0.48144806 15.1875 3.25 C17.625 5.6875 17.625 5.6875 19.1875 8.25 C18.9375 10.5625 18.9375 10.5625 18.1875 12.25 C11.63876631 12.62068304 11.63876631 12.62068304 9.4375 10.8125 C9.025 10.296875 8.6125 9.78125 8.1875 9.25 C5.02550849 8.19600283 2.57289814 8.01554087 -0.75 7.9375 C-2.31041016 7.88142578 -2.31041016 7.88142578 -3.90234375 7.82421875 C-6.87285087 8.04437088 -6.87285087 8.04437088 -9.16015625 9.83203125 C-11.38519874 13.08806269 -11.3457016 15.33221093 -11.3125 19.25 C-11.3228125 20.466875 -11.333125 21.68375 -11.34375 22.9375 C-11.05467789 26.2767164 -11.05467789 26.2767164 -9.125 28.66796875 C-6.28086112 30.61370565 -4.72859307 30.69858063 -1.3125 30.5625 C-0.3740625 30.53800781 0.564375 30.51351562 1.53125 30.48828125 C3.90104446 30.27569675 5.95653376 30.07405059 8.1875 29.25 C9.48410434 26.75965614 9.48410434 26.75965614 10.1875 24.25 C8.888125 24.270625 7.58875 24.29125 6.25 24.3125 C4.89584367 24.33399454 3.53993917 24.32148199 2.1875 24.25 C1.1875 23.25 1.1875 23.25 1.0625 20.75 C1.1875 18.25 1.1875 18.25 2.1875 17.25 C5.05017567 17.17674832 7.888219 17.15761795 10.75 17.1875 C11.55630859 17.19201172 12.36261719 17.19652344 13.19335938 17.20117188 C15.19143756 17.21299482 17.18947783 17.23093086 19.1875 17.25 C19.87576474 29.06521135 19.87576474 29.06521135 17.4375 32.875 C12.92606512 37.63707015 8.22365501 38.03514448 1.8203125 38.48828125 C-7.0110788 38.67513697 -12.15937431 37.67861893 -19.1875 32.5 C-22.79136436 27.51003397 -23.33959569 21.25889088 -22.8125 15.25 C-22.07477497 11.02086343 -21.24393439 7.5084694 -17.9375 4.6015625 C-11.91162589 0.76892933 -7.00083127 0.0447695 0 0 Z " fill="#BE067C" transform="translate(712.8125,200.75)"/>
<path d="M0 0 C0.71353638 0.00202423 1.42707275 0.00404846 2.16223145 0.00613403 C2.89091431 0.00517731 3.61959717 0.00422058 4.37036133 0.00323486 C5.91377855 0.00255318 7.45719861 0.00440666 9.00061035 0.00857544 C11.37095544 0.01392391 13.74111104 0.00863011 16.1114502 0.00222778 C17.60754437 0.00288857 19.10363842 0.00416973 20.59973145 0.00613403 C21.31326782 0.0041098 22.0268042 0.00208557 22.76196289 0 C27.76602953 0.02399462 27.76602953 0.02399462 28.88098145 1.13894653 C28.88098145 3.11894653 28.88098145 5.09894653 28.88098145 7.13894653 C20.63098145 7.13894653 12.38098145 7.13894653 3.88098145 7.13894653 C3.88098145 9.77894653 3.88098145 12.41894653 3.88098145 15.13894653 C4.51189697 15.13370972 5.1428125 15.1284729 5.79284668 15.12307739 C8.63471492 15.10236827 11.47656732 15.08930587 14.31848145 15.07644653 C15.3117041 15.06806763 16.30492676 15.05968872 17.32824707 15.05105591 C18.27248535 15.04783325 19.21672363 15.0446106 20.1895752 15.04129028 C21.06412354 15.03605347 21.93867188 15.03081665 22.83972168 15.02542114 C24.88098145 15.13894653 24.88098145 15.13894653 25.88098145 16.13894653 C26.00598145 18.63894653 26.00598145 18.63894653 25.88098145 21.13894653 C24.88098145 22.13894653 24.88098145 22.13894653 22.83972168 22.25247192 C21.96517334 22.24723511 21.090625 22.24199829 20.1895752 22.23660278 C19.24533691 22.23338013 18.30109863 22.23015747 17.32824707 22.22683716 C16.33502441 22.21845825 15.34180176 22.21007935 14.31848145 22.20144653 C13.3213916 22.19693481 12.32430176 22.1924231 11.29699707 22.18777466 C8.82493296 22.1759466 6.35298627 22.15946503 3.88098145 22.13894653 C3.88098145 24.77894653 3.88098145 27.41894653 3.88098145 30.13894653 C4.56724609 30.13370972 5.25351074 30.1284729 5.96057129 30.12307739 C9.05903209 30.10233698 12.1574783 30.08929578 15.25598145 30.07644653 C16.33621582 30.06806763 17.4164502 30.05968872 18.52941895 30.05105591 C20.07629395 30.04622192 20.07629395 30.04622192 21.65441895 30.04129028 C22.60751953 30.03605347 23.56062012 30.03081665 24.54260254 30.02542114 C26.88098145 30.13894653 26.88098145 30.13894653 28.88098145 31.13894653 C28.92352501 33.13849399 28.92178927 35.1393629 28.88098145 37.13894653 C27.17605263 38.84387535 25.03563884 38.26699074 22.76196289 38.27789307 C22.04842651 38.27586884 21.33489014 38.2738446 20.59973145 38.27175903 C19.87104858 38.27271576 19.14236572 38.27367249 18.39160156 38.2746582 C16.84818435 38.27533989 15.30476428 38.27348641 13.76135254 38.26931763 C11.39100745 38.26396916 9.02085185 38.26926295 6.6505127 38.27566528 C5.15441852 38.2750045 3.65832447 38.27372333 2.16223145 38.27175903 C1.09192688 38.27479538 1.09192688 38.27479538 0 38.27789307 C-5.00406664 38.25389845 -5.00406664 38.25389845 -6.11901855 37.13894653 C-6.2199742 34.4843846 -6.25872854 31.85639478 -6.25183105 29.20144653 C-6.25278778 28.40617554 -6.25374451 27.61090454 -6.25473022 26.79153442 C-6.25541199 25.10688193 -6.25355798 23.42222682 -6.24938965 21.73757935 C-6.24404131 19.14995457 -6.24933474 16.56250337 -6.2557373 13.97488403 C-6.25507652 12.34207115 -6.25379536 10.70925837 -6.25183105 9.07644653 C-6.25385529 8.29728882 -6.25587952 7.5181311 -6.25796509 6.71536255 C-6.23081839 0.53666923 -6.2273971 0.02986052 0 0 Z " fill="#BF0A7E" transform="translate(454.1190185546875,200.86105346679688)"/>
<path d="M0 0 C2.825625 0.061875 5.65125 0.12375 8.5625 0.1875 C8.5625 9.4275 8.5625 18.6675 8.5625 28.1875 C-2.6575 28.1875 -13.8775 28.1875 -25.4375 28.1875 C-24.4375 20.1875 -24.4375 20.1875 -23.4375 17.1875 C-22.7775 17.1875 -22.1175 17.1875 -21.4375 17.1875 C-21.355 16.176875 -21.2725 15.16625 -21.1875 14.125 C-20.5710458 10.01808216 -19.36180028 6.21677516 -16.4375 3.1875 C-10.86389208 0.1052877 -6.27763535 -0.19572504 0 0 Z " fill="#FDFEFE" transform="translate(612.4375,114.8125)"/>
<path d="M0 0 C1.08027466 -0.01546875 1.08027466 -0.01546875 2.18237305 -0.03125 C8.25586501 0.06880524 12.44929028 1.86475804 17.8125 4.6875 C20.27637937 7.34090856 20.24193772 9.91737897 20.4375 13.4375 C19.4375 14.4375 19.4375 14.4375 15.5625 14.8125 C13.375 14.80078125 13.375 14.80078125 11.4375 14.4375 C9.5625 12 9.5625 12 8.4375 9.4375 C5.85629934 8.14689967 3.94330171 8.30477667 1.0625 8.3125 C0.10601563 8.30992187 -0.85046875 8.30734375 -1.8359375 8.3046875 C-5.29551574 8.45192106 -5.29551574 8.45192106 -8.5625 9.4375 C-10.75265187 12.48436742 -10.80607406 15.19960045 -10.75 18.875 C-10.74355469 19.80183594 -10.73710938 20.72867188 -10.73046875 21.68359375 C-10.56755262 24.35466056 -10.1538295 26.83091958 -9.5625 29.4375 C-4.29390001 30.54667895 1.07802458 31.11894533 6.4375 30.4375 C9.30899318 28.35566745 10.46534647 26.39573029 12.4375 23.4375 C14.3828125 23.14453125 14.3828125 23.14453125 16.5625 23.25 C17.84125 23.311875 19.12 23.37375 20.4375 23.4375 C20.4375 26.0775 20.4375 28.7175 20.4375 31.4375 C19.4475 31.7675 18.4575 32.0975 17.4375 32.4375 C17.4375 33.0975 17.4375 33.7575 17.4375 34.4375 C9.41711138 39.78442575 0.07189007 39.62677585 -9.19921875 37.96484375 C-14.21190507 36.3703321 -16.68531548 33.62249567 -19.5625 29.4375 C-21.74609766 22.88670702 -21.81149536 14.21874909 -19.0625 7.8125 C-17.02693224 4.5750441 -14.83362722 2.55672854 -11.3046875 1.05859375 C-7.52617 0.20277568 -3.86598688 0.04656313 0 0 Z " fill="#BE047B" transform="translate(571.5625,200.5625)"/>
<path d="M0 0 C3.4375 0.1875 3.4375 0.1875 4.4375 1.1875 C4.55907542 3.07812951 4.61719583 4.97291073 4.6484375 6.8671875 C4.67679688 8.02347656 4.70515625 9.17976562 4.734375 10.37109375 C4.78628982 12.82406889 4.8306108 15.27721697 4.8671875 17.73046875 C4.898125 18.88933594 4.9290625 20.04820312 4.9609375 21.2421875 C4.98075684 22.30937012 5.00057617 23.37655273 5.02099609 24.47607422 C5.22149985 27.20158389 5.22149985 27.20158389 6.82104492 29.03198242 C9.0517529 30.62659666 10.65327048 30.62090717 13.375 30.625 C14.22964844 30.64433594 15.08429687 30.66367188 15.96484375 30.68359375 C19.28085519 30.01829604 20.3284912 28.80282417 22.4375 26.1875 C23.05898554 23.41250366 23.05898554 23.41250366 23.01171875 20.36328125 C23.03943359 19.25275391 23.06714844 18.14222656 23.09570312 16.99804688 C23.10537109 15.84369141 23.11503906 14.68933594 23.125 13.5 C23.16687741 11.20435669 23.2122527 8.90877358 23.26171875 6.61328125 C23.27291748 5.59661377 23.28411621 4.57994629 23.2956543 3.5324707 C23.4375 1.1875 23.4375 1.1875 24.4375 0.1875 C27.9375 0.0625 27.9375 0.0625 31.4375 0.1875 C34.12906629 2.87906629 32.72197473 10.69537193 32.75 14.3125 C32.77900391 15.53710938 32.80800781 16.76171875 32.83789062 18.0234375 C32.88659167 24.9464786 32.77412715 29.64887294 28.4375 35.1875 C21.99847497 39.6232728 13.96798162 38.80951115 6.4375 38.1875 C2.46887165 37.24655102 -1.16438593 35.59534631 -3.5625 32.1875 C-6.23223096 26.28650796 -5.85770063 20.28065478 -5.8125 13.9375 C-5.82023438 12.83664063 -5.82796875 11.73578125 -5.8359375 10.6015625 C-5.83335937 9.55226562 -5.83078125 8.50296875 -5.828125 7.421875 C-5.82586914 6.46506836 -5.82361328 5.50826172 -5.82128906 4.52246094 C-5.36761766 0.42914651 -3.95033411 0.20791232 0 0 Z " fill="#BF067C" transform="translate(834.5625,200.8125)"/>
<path d="M0 0 C4.78743039 -0.04591036 9.57409714 -0.08573529 14.36157227 -0.10986328 C15.99017932 -0.11992142 17.61876832 -0.13356958 19.24731445 -0.15087891 C21.58809872 -0.17513574 23.92864424 -0.18648483 26.26953125 -0.1953125 C27.36186821 -0.21079636 27.36186821 -0.21079636 28.47627258 -0.22659302 C32.21275069 -0.22742249 33.80675056 -0.12883296 37 2 C38.97180828 6.33797821 39.39298339 9.42305458 38 14 C35.72158051 16.81005071 34.45303547 17.84898818 31 19 C28.64319787 19.08397157 26.28405919 19.10728187 23.92578125 19.09765625 C22.90003242 19.09553383 22.90003242 19.09553383 21.8535614 19.09336853 C19.67316278 19.08777876 17.49286749 19.07522822 15.3125 19.0625 C13.83268378 19.05748367 12.35286594 19.052921 10.87304688 19.04882812 C7.24862624 19.0386643 3.62442856 19.0190871 0 19 C0 12.73 0 6.46 0 0 Z " fill="#F9FCFE" transform="translate(415,144)"/>
<path d="M0 0 C2.64 0 5.28 0 8 0 C9.40912096 2.81824192 9.11183553 5.17251282 9.09765625 8.3203125 C9.09443359 9.57714844 9.09121094 10.83398438 9.08789062 12.12890625 C9.07951172 13.44761719 9.07113281 14.76632813 9.0625 16.125 C9.05748489 17.46484211 9.05292201 18.804686 9.04882812 20.14453125 C9.03701086 23.42973206 9.02053617 26.71484397 9 30 C9.72179443 29.99476318 10.44358887 29.98952637 11.18725586 29.98413086 C14.43732849 29.96342642 17.68738728 29.95036082 20.9375 29.9375 C22.07380859 29.92912109 23.21011719 29.92074219 24.38085938 29.91210938 C25.46044922 29.90888672 26.54003906 29.90566406 27.65234375 29.90234375 C29.15269165 29.89448853 29.15269165 29.89448853 30.68334961 29.88647461 C33 30 33 30 34 31 C34.125 34 34.125 34 34 37 C33 38 33 38 29.85717773 38.11352539 C28.46597303 38.11336633 27.07476239 38.10767506 25.68359375 38.09765625 C24.95253922 38.0962413 24.22148468 38.09482635 23.46827698 38.09336853 C21.12464368 38.08775408 18.78110461 38.07519922 16.4375 38.0625 C14.85221492 38.05748686 13.26692834 38.05292363 11.68164062 38.04882812 C7.7877239 38.03777997 3.89387795 38.02050572 0 38 C-1.52348035 34.95303929 -1.14211557 31.77919939 -1.1328125 28.4375 C-1.13376923 27.69040771 -1.13472595 26.94331543 -1.13571167 26.17358398 C-1.13639249 24.59326086 -1.13454503 23.01293494 -1.13037109 21.43261719 C-1.12502142 19.0097019 -1.13031935 16.586972 -1.13671875 14.1640625 C-1.13605795 12.63020792 -1.13477675 11.09635346 -1.1328125 9.5625 C-1.13483673 8.83538818 -1.13686096 8.10827637 -1.13894653 7.35913086 C-1.1149618 2.22992361 -1.1149618 2.22992361 0 0 Z " fill="#C00D7F" transform="translate(645,201)"/>
<path d="M0 0 C4.4856573 -0.11495135 8.96619019 -0.21441489 13.45214844 -0.2746582 C14.9770643 -0.29977103 16.50186015 -0.33386883 18.02636719 -0.37719727 C20.22100426 -0.43800044 22.4140481 -0.46623887 24.609375 -0.48828125 C25.92905273 -0.51446533 27.24873047 -0.54064941 28.60839844 -0.56762695 C32 0 32 0 34.46582031 2.30395508 C36 5 36 5 35.9375 8.625 C35.04211343 11.84839166 34.64893115 13.09276958 32 15 C29.0780231 16.46098845 26.50106525 16.11134901 23.2421875 16.09765625 C22.24761032 16.09553383 22.24761032 16.09553383 21.23294067 16.09336853 C19.11358137 16.08776754 16.99432741 16.075215 14.875 16.0625 C13.43880361 16.05748512 12.00260556 16.05292219 10.56640625 16.04882812 C7.04419752 16.03864833 3.52221679 16.01907338 0 16 C0 10.72 0 5.44 0 0 Z " fill="#F8FCFE" transform="translate(415,115)"/>
<path d="M0 0 C2.1875 1.6875 2.1875 1.6875 4.1875 4.6875 C4.90183348 10.80821007 5.44364605 16.67005331 2.125 22 C-2.66310147 24.75061148 -6.16853914 24.98889282 -11.5625 24 C-15.11686113 22.56458493 -15.9695188 21.95066084 -17.8125 18.6875 C-18.5443829 13.57041875 -19.21015801 7.41855588 -16.79296875 2.6953125 C-12.23695189 -1.95705517 -5.7716212 -2.69342323 0 0 Z " fill="#FDFCFD" transform="translate(808.8125,208.3125)"/>
<path d="M0 0 C12.33333333 0 12.33333333 0 17 2 C19.76462721 4.94299026 20.21046358 7.52811472 20.375 11.4375 C20.23711299 15.56721592 19.28037191 18.49173553 17 22 C13.93618406 23.53190797 10.73034134 23.10243613 7.375 23.0625 C4.94125 23.041875 2.5075 23.02125 0 23 C0 15.41 0 7.82 0 0 Z " fill="#FDFBFC" transform="translate(499,208)"/>
<path d="M0 0 C1.23556641 0.01740234 1.23556641 0.01740234 2.49609375 0.03515625 C3.32238281 0.04417969 4.14867187 0.05320313 5 0.0625 C5.63808594 0.07410156 6.27617188 0.08570313 6.93359375 0.09765625 C8.45623484 3.14293844 8.09644912 6.31910871 8.1015625 9.66015625 C8.1048909 10.40724854 8.1082193 11.15434082 8.11164856 11.92407227 C8.11671341 13.50438826 8.11905702 15.08471496 8.11889648 16.66503906 C8.12108509 19.08806868 8.13925076 21.51064461 8.15820312 23.93359375 C8.16113667 25.46744635 8.16312173 27.00130113 8.1640625 28.53515625 C8.17124802 29.26226807 8.17843353 29.98937988 8.18583679 30.73852539 C8.16242178 35.86882822 8.16242178 35.86882822 5.93359375 38.09765625 C3.21904419 38.42517859 0.68128616 38.22849875 -2.06640625 38.09765625 C-3.85471073 36.30935177 -3.19489336 33.90184473 -3.20535278 31.52124023 C-3.20332855 30.74208252 -3.20130432 29.9629248 -3.19921875 29.16015625 C-3.20017548 28.36488525 -3.2011322 27.56961426 -3.20211792 26.75024414 C-3.20279968 25.06559165 -3.20094568 23.38093654 -3.19677734 21.69628906 C-3.191429 19.10866428 -3.19672244 16.52121309 -3.203125 13.93359375 C-3.20246422 12.30078086 -3.20118305 10.66796809 -3.19921875 9.03515625 C-3.20124298 8.25599854 -3.20326721 7.47684082 -3.20535278 6.67407227 C-3.17668918 0.15012709 -3.17668918 0.15012709 0 0 Z " fill="#BE047B" transform="translate(537.06640625,200.90234375)"/>
<path d="M0 0 C13.28217237 -0.29515939 13.28217237 -0.29515939 18 2 C19.54163175 5.0832635 19.29747535 7.60878099 19 11 C16.52534923 13.75800773 15.05780568 13.99538784 11.328125 14.29296875 C9.96843965 14.27316751 8.6089066 14.23759202 7.25 14.1875 C6.55261719 14.17396484 5.85523438 14.16042969 5.13671875 14.14648438 C3.42414459 14.1112945 1.71197059 14.05749155 0 14 C0 9.38 0 4.76 0 0 Z " fill="#FDFCFD" transform="translate(885,208)"/>
<path d="M0 0 C0 4.62 0 9.24 0 14 C-5.61 14 -11.22 14 -17 14 C-15.84431138 4.75449102 -15.84431138 4.75449102 -13 1 C-9.14854957 -0.92572521 -4.19956748 -0.04883218 0 0 Z " fill="#FBF4F8" transform="translate(626,208)"/>
<path d="M0 0 C2.08304538 -0.05418326 4.16649768 -0.09287551 6.25 -0.125 C7.99023438 -0.15980469 7.99023438 -0.15980469 9.765625 -0.1953125 C12.82786046 -0.0103949 14.44202751 0.39176977 17 2 C17.125 4.375 17.125 4.375 17 7 C15 9 15 9 11.5234375 9.1953125 C10.14049032 9.18201493 8.75761346 9.15816232 7.375 9.125 C6.66859375 9.11597656 5.9621875 9.10695312 5.234375 9.09765625 C3.48943902 9.07407603 1.74467705 9.03820461 0 9 C0 6.03 0 3.06 0 0 Z " fill="#FDFAFB" transform="translate(749,208)"/>
</svg>
