<?xml version="1.0" encoding="utf-8"?>
<!DOCTYPE svg PUBLIC "-//W3C//DTD SVG 1.0//EN" "http://www.w3.org/TR/2001/REC-SVG-20010904/DTD/svg10.dtd">
<svg version="1.0" xmlns="http://www.w3.org/2000/svg" width="1024px" height="681px" viewBox="0 0 1024 681" preserveAspectRatio="xMidYMid meet">
 <g fill="#ffffff">
  <path d="M0 340.5 l0 -340.5 512 0 512 0 0 340.5 0 340.5 -512 0 -512 0 0 -340.5z m146 154.4 c7.7 -2.9 32.9 -15.8 35 -17.9 1.8 -1.8 15.7 -11 16.6 -11 1.2 0 21.9 -15.4 23.2 -17.2 0.7 -1 1.9 -1.8 2.5 -1.8 0.7 -0.1 5.7 -3.7 11.2 -8.1 11.4 -9.1 11.2 -9 26 -4.9 11.9 3.3 21.5 3.1 33.4 -0.9 13.3 -4.4 16.6 -6.7 31.2 -21.5 16.6 -17 23 -50 15.5 -80.2 -2.4 -9.9 -10.6 -30.4 -13.3 -33.4 -0.7 -0.8 -3.7 -5.1 -6.6 -9.5 -9.2 -13.9 -11.4 -16.9 -15.4 -20.6 -6.4 -6 -16.8 -13.5 -22.9 -16.5 -3.3 -1.5 -6.1 -3.1 -6.4 -3.4 -0.9 -1.2 -9.9 -3 -15 -3 -5.9 0 -14 1.8 -14 3.1 0 0.5 -2 0.9 -4.3 0.9 -3.6 0 -4.6 -0.4 -5.4 -2.2 -1.6 -3.3 -12.1 -14.6 -15.2 -16.3 -1.4 -0.8 -5 -3.7 -8 -6.5 -4.5 -4.3 -16.1 -13 -17.4 -13 -0.2 0 -5.5 -2.9 -11.8 -6.5 -6.3 -3.6 -12.1 -6.5 -13 -6.5 -0.9 0 -2.6 -0.9 -3.9 -2 -3.7 -3.2 -22 -9.8 -31.9 -11.5 -7.5 -1.3 -10.6 -1.4 -16.4 -0.5 -7 1.1 -18.4 5.5 -24 9.3 -4.6 3.1 -11.9 11.3 -16.9 19 -2.6 4 -5.1 7.7 -5.5 8.2 -2.1 2.6 -7.4 18.1 -9.2 27.1 -5.2 25.5 -4.9 49.2 0.9 72.8 2.1 8.2 6.7 19.6 8.1 19.6 1.8 0 3.8 9.3 4.3 20.1 0.9 17 4.7 37.9 11.6 62.7 2 7.2 8.8 25.2 9.9 26.2 0.3 0.3 2.3 4.1 4.4 8.4 2.1 4.4 5.4 10.3 7.3 13.3 1.9 2.9 3.4 5.8 3.4 6.3 0 2.1 13.9 14.8 18.9 17.3 6.6 3.2 6.2 3.2 13.1 0.6z m342.8 -100.3 l-0.3 -15.1 -3.8 -0.3 c-4.1 -0.3 -6.2 0.8 -6.9 3.6 -0.4 1.5 0.1 1.7 3.4 1.4 l3.8 -0.4 0 12.9 c0 7.1 0.3 13.2 0.6 13.6 0.3 0.3 1.2 0.3 2 0 1.2 -0.4 1.4 -3.3 1.2 -15.7z m41.7 15.4 c-0.4 -0.6 -5.5 -1 -12.1 -1 l-11.4 0 0 -7 0 -7 10.8 -0.2 10.7 -0.2 -10.7 -0.3 -10.8 -0.4 0 -6.9 0 -6.9 12.3 -0.4 c12.2 -0.3 12.1 -0.3 -1.8 -0.2 l-14 0 -0.3 14.9 c-0.2 11.3 0.1 15.1 1 15.8 1.9 1.2 27.1 1 26.3 -0.2z m31.5 0.1 c3.9 -0.7 3.2 -0.9 -4.7 -1 l-9.3 -0.1 0 -14.5 0 -14.4 6.8 -0.4 6.7 -0.3 -7.7 -0.2 c-6.7 -0.2 -7.9 0 -8.8 1.7 -0.5 1.1 -1 7.4 -1 14.1 0 6.7 0.5 13 1 14.1 0.9 1.5 2.1 1.9 6.8 1.8 3.1 0 7.7 -0.4 10.2 -0.8z m32 -15 c0 -14 -0.6 -16.8 -3.4 -15.8 -1.4 0.5 -1.6 2.8 -1.6 15.6 0 11 0.3 15.1 1.3 15.4 3.1 1.1 3.7 -1.5 3.7 -15.2z m33.3 15.2 c-1.3 -0.2 -3.3 -0.2 -4.5 0 -1.3 0.2 -0.3 0.4 2.2 0.4 2.5 0 3.5 -0.2 2.3 -0.4z m27.1 -4.8 l0.7 -3.5 12.9 0 12.9 0 0.3 4.3 c0.2 2.3 0.8 4.1 1.3 4 0.6 -0.2 1 -6.2 1 -15.5 l0 -15.3 -8 -0.1 -8 -0.1 6.5 0.6 6.5 0.6 0 9.5 0 9.5 -11.4 0.3 -11.3 0.3 0.5 -6.3 c0.3 -3.5 0.8 -7.4 1.2 -8.8 0.7 -2.5 0.7 -2.5 -0.8 -0.4 -0.9 1.1 -2.8 6.8 -4.2 12.5 -1.5 5.7 -2.9 11.3 -3.2 12.4 -0.5 1.7 -0.4 1.8 1 0.7 0.8 -0.7 1.8 -2.8 2.1 -4.7z m72.1 4.5 c-0.4 -0.6 -5.5 -1 -12.1 -1 l-11.4 0 0 -13.7 c0 -13.8 -0.9 -18.4 -3 -15.3 -1.4 2.2 -1.3 28.3 0.2 29.8 1.5 1.5 27.2 1.7 26.3 0.2z m39.8 0.3 c-1.3 -0.2 -3.5 -0.2 -5 0 -1.6 0.2 -0.5 0.4 2.2 0.4 2.8 0 4 -0.2 2.8 -0.4z m31.7 -7.4 l0 -6.9 7 0 c5.8 0 7.2 0.3 9 2.2 l2 2.2 0 -2.7 0 -2.7 -9 0 -9 0 0 -7.5 0 -7.4 8.8 -0.4 8.7 -0.3 -10.6 -0.2 c-9 -0.2 -10.8 0.1 -11.3 1.4 -1.1 2.9 -0.7 27.9 0.5 29.1 2.6 2.6 3.9 0.2 3.9 -6.8z m104.3 7.4 c-1.3 -0.2 -3.3 -0.2 -4.5 0 -1.3 0.2 -0.3 0.4 2.2 0.4 2.5 0 3.5 -0.2 2.3 -0.4z m-452.5 -13.6 l0.3 -12.7 3.2 0 c3.2 0 3.3 0.1 6.2 8.8 1.6 4.8 3.2 8.9 3.5 9.2 0.4 0.3 1.3 2.2 1.9 4.3 2 5.8 4.1 4.9 6.5 -2.8 0.5 -1.9 0.2 -2 -3.2 -1.7 l-3.9 0.4 -3.3 -9.4 c-1.8 -5.1 -3.7 -9.4 -4.2 -9.6 -0.4 -0.2 -0.8 -1 -0.8 -1.7 0 -2.5 -6.6 -3.5 -8.8 -1.3 -1.3 1.3 -1.8 27.9 -0.5 29.2 2.1 2.1 2.8 -1 3.1 -12.7z m373.2 11.3 c-0.6 -1.1 -1.5 -2 -2 -2 -0.6 0 -1 -0.6 -1 -1.4 0 -0.7 -0.7 -1.9 -1.5 -2.6 -2.3 -1.9 -1.8 0.1 1 4.3 2.7 3.9 5.4 5.3 3.5 1.7z m111 -1.4 l0 -3.3 9.4 -0.6 c11.5 -0.7 14.3 -1.9 17.3 -7.6 2.1 -4.1 2.2 -4.5 0.7 -8 -2.5 -5.9 -3 -5.5 -2.6 2.1 0.6 9.9 -0.6 10.7 -14.5 10.8 l-10.3 0 0 -10.1 0 -10.1 9.8 0.4 c5.3 0.2 10.6 0.7 11.7 1.1 1.1 0.4 0.7 0.1 -1 -0.7 -3.1 -1.5 -19.7 -2.2 -22.9 -1 -1.4 0.5 -1.6 2.8 -1.6 15.5 0 14.2 0.1 14.9 2 14.9 1.6 0 2 -0.7 2 -3.4z m-18.5 -6.1 c0.9 -4.7 0.1 -20.5 -1 -20.5 -0.6 0 -1.2 5.3 -1.5 12.8 -0.4 7 -1 13.4 -1.4 14.2 -0.4 0.8 0.2 0.4 1.3 -1 1.1 -1.4 2.3 -3.8 2.6 -5.5z m-274.9 1.8 c-0.4 -0.5 -1.4 0.1 -2.2 1.1 -2.1 3 -1.7 3.9 0.8 1.6 1.2 -1.1 1.8 -2.3 1.4 -2.7z m138.9 1.7 c0.8 -1.6 1.5 -4 1.5 -5.5 0 -2.4 -0.2 -2.5 -5.2 -2.3 -4.5 0.1 -4.7 0.2 -1.5 0.5 l3.9 0.4 -0.4 5 c-0.1 2.7 -0.2 4.9 -0.1 4.9 0.1 0 0.9 -1.3 1.8 -3z m108.7 -9.7 c-0.3 -14.7 -0.6 -16.1 -2.7 -14.3 -2.7 2.3 -1.5 21.9 1.7 25.7 0.6 0.7 1.1 1.3 1.2 1.3 0 0 0 -5.7 -0.2 -12.7z m-311.6 4.1 c0.8 -4.6 -0.2 -9.7 -2.6 -12.6 l-2 -2.3 1 2.8 c1.3 3.6 1.3 12.2 0 16.7 l-0.9 3.5 1.9 -2.3 c1.1 -1.3 2.2 -3.9 2.6 -5.8z m173.9 -3.3 c0 -11.3 -1 -13.2 -3.5 -7 -2.2 5.2 -0.9 15.1 2.3 17.1 0.7 0.4 1.2 0.8 1.2 0.8 0 0 0 -4.9 0 -10.9z m90 0 c0 -11.7 -1.1 -13.2 -3.5 -4.7 -0.9 3.3 -0.9 5.3 0 8.7 1 3.5 2.6 6.9 3.4 6.9 0 0 0.1 -4.9 0.1 -10.9z m30.5 4 c1.2 -5.2 0.1 -11.9 -2.3 -13.9 -0.9 -0.8 -1.2 1.3 -1.2 9.8 0 8.1 0.3 10.6 1.2 9.9 0.6 -0.6 1.6 -3.2 2.3 -5.8z m-261.8 -2 c-0.2 -4.4 0 -9.3 0.6 -11 0.6 -1.7 0.9 -3.1 0.6 -3.1 -1.1 0 -4.4 8.7 -4.4 11.8 0 2.9 2.3 10.2 3.3 10.2 0.2 0 0.2 -3.6 -0.1 -7.9z m214.6 -6.3 c1.8 -1.8 1.4 -5.3 -0.8 -7.3 -2 -1.8 -2 -1.7 -2 3.3 0 5.3 0.6 6.2 2.8 4z m-183.8 -4.6 c0 -0.4 -0.9 -1.3 -2.1 -2 -1.9 -1.2 -1.9 -1.1 -0.9 0.8 1 1.9 3 2.8 3 1.2z m-12.2 -6.9 c-1.6 -0.2 -4 -0.2 -5.5 0 -1.6 0.2 -0.3 0.4 2.7 0.4 3 0 4.3 -0.2 2.8 -0.4z m140 0 c-1.5 -0.2 -4.2 -0.2 -6 0 -1.8 0.2 -0.6 0.4 2.7 0.4 3.3 0 4.8 -0.2 3.3 -0.4z m84 -31.3 c1.7 -0.7 3.2 -1.6 3.2 -2 0 -0.5 0.9 -1.2 2.1 -1.5 5.3 -1.7 14.9 -13.9 14.9 -18.9 0 -0.8 0.5 -1.6 1 -1.8 1.4 -0.4 1.5 -18.9 0.1 -19.7 -0.5 -0.3 -1.3 -2 -1.7 -3.6 -3.5 -14.6 -16.7 -22.5 -37.9 -22.5 -26.5 0 -41.6 17.2 -37.6 43 0.6 3.9 1.8 8.4 2.6 9.9 2.1 4.1 7.5 10 11.5 12.4 1.9 1.1 3.7 2.4 4 2.9 0.3 0.4 3 1.4 6 2.3 6.4 1.8 26.4 1.5 31.8 -0.5z m-348.8 -0.1 c2.7 -0.6 5 -1.5 5 -2 0 -0.5 0.6 -0.9 1.3 -0.9 2.6 0 8.8 -5.2 10.7 -9 3.6 -7.1 2.2 -14.1 -4 -19.3 -3.4 -2.9 -4.1 -7.6 -1.4 -9.8 7.4 -6.1 4.9 -18.8 -4.8 -23.6 -7.1 -3.6 -13.3 -4.3 -35.9 -4.3 -17.7 0 -21 0.2 -22.4 1.6 -1.4 1.4 -1.5 5.3 -1.3 34 0.3 27.6 0.5 32.6 1.8 33.4 2.1 1.3 44.8 1.2 51 -0.1z m99.1 0.1 c2.1 -1.2 2.5 -5 0.7 -6.8 -0.9 -0.9 -7.9 -1.2 -25.5 -1.2 l-24.4 0 0.3 -11.2 0.3 -11.3 21.1 -0.3 c22.6 -0.3 24.3 -0.7 22.9 -5.1 -0.6 -2 -1.5 -2.1 -22.3 -2.3 l-21.7 -0.3 -0.3 -11.2 -0.3 -11.3 24.4 0 c25.2 0 26.7 -0.2 26.7 -4.2 0 -3.6 -3.2 -3.9 -33.6 -3.6 -24.9 0.3 -29.6 0.5 -30.4 1.8 -1 1.6 -1.4 61 -0.4 64.7 0.3 1.2 1.3 2.4 2.3 2.6 3.6 1 58.3 0.7 60.2 -0.3z m23.3 -0.3 c1 -0.7 2.8 -4.9 4.1 -9.3 l2.3 -7.9 22 -0.3 22 -0.2 0.3 8.5 c0.3 6.2 0.8 8.8 1.9 9.5 2 1.3 6.7 1.3 9.1 0 1.8 -1 1.9 -2.5 1.9 -34 0 -31.5 -0.1 -33 -1.9 -34 -2.6 -1.3 -26.4 -1.3 -35.4 0.1 -11.7 1.8 -19.6 6.9 -22.4 14.5 -1.2 3.1 -7.6 27.5 -8.8 33.4 -0.4 1.9 -1.1 3.7 -1.5 4 -1 0.7 -4.9 15.8 -4.2 16.4 1.1 1.1 8.8 0.6 10.6 -0.7z m138.1 0.2 c2.2 -0.6 4.2 -1.4 4.5 -1.8 0.3 -0.3 2.2 -1.5 4.4 -2.6 4.3 -2.2 8.3 -6.8 9.5 -11.3 0.8 -2.5 0.5 -3.3 -1.5 -5.1 -2.5 -2.2 -4.4 -2.7 -4.4 -1.2 0 0.5 -0.9 1.1 -1.9 1.4 -1.1 0.2 -3.1 2.3 -4.4 4.5 -5.2 8.1 -6.1 8.4 -23.8 8 -14.1 -0.3 -16.1 -0.5 -18.6 -2.4 -4.9 -3.7 -5.8 -6.6 -6.1 -21.9 -0.3 -12.1 -0.1 -14.8 1.6 -19 3.3 -8.4 4.8 -9 23.2 -9 l15.9 0 3 2.9 c1.7 1.7 3.1 3.5 3.1 4.2 0 0.6 0.9 2.3 2.1 3.8 1.6 2 2.9 2.6 5.9 2.6 6.1 0 6.8 -2 3.4 -8.8 -2.7 -5.1 -3.6 -6 -9.9 -9.2 l-7 -3.5 -15.5 0 c-13.8 0.1 -16.1 0.3 -21 2.4 -7.6 3.1 -11.1 6 -14.2 11.7 -8.3 15.3 -5.1 39.1 6.4 47.5 2.3 1.6 4.7 2.9 5.4 2.9 0.7 0 1.9 0.7 2.8 1.5 0.8 0.8 3.2 1.9 5.3 2.4 5.5 1.3 27.1 1.3 31.8 0z m139.5 0.1 c1.3 -0.8 1.5 -4.9 1.8 -25 l0.3 -24 3.2 0 c2.9 0.1 3.7 0.8 7.7 7.2 2.5 3.9 5.8 9.4 7.4 12.2 3.1 5.6 6.6 10.8 7.7 11.6 0.4 0.3 3.1 4.1 5.9 8.5 2.9 4.4 5.9 8.6 6.8 9.3 1.9 1.4 16 1.6 18.2 0.2 1.3 -0.8 1.5 -5.8 1.8 -33.4 0.2 -28.7 0.1 -32.6 -1.3 -34 -1.9 -1.8 -6.7 -2.1 -9.6 -0.6 -1.8 1 -1.9 2.4 -1.9 26.5 l0 25.5 -3.4 0 c-2.7 0 -3.9 -0.7 -5.5 -2.9 -1.2 -1.6 -2.1 -3.2 -2.1 -3.5 0 -0.8 -13 -20.8 -14.7 -22.6 -0.7 -0.8 -3.8 -5.5 -6.9 -10.5 -7.6 -12.5 -8.9 -13.5 -17.3 -13.5 -3.9 0 -7.2 0.5 -7.9 1.2 -0.9 0.9 -1.2 9.8 -1.2 33.8 0 24 0.3 32.9 1.2 33.8 1.4 1.4 7.7 1.6 9.8 0.2z"/>
  <path d="M822.1 340.5 c-5.3 -1.7 -9.6 -5.6 -11.3 -10.4 -0.8 -2.2 -1.3 -8.7 -1.3 -16.6 0 -11.3 0.3 -13.6 2.2 -17.5 2.8 -6 4.9 -7.7 11.4 -9.6 7.4 -2.2 20.6 -1.5 27.2 1.5 4.2 1.9 5.2 3 7.5 7.9 2.5 5.2 2.7 6.7 2.7 18.2 0 11.3 -0.3 13 -2.5 17.5 -3.6 7.3 -9.3 9.9 -22 10.2 -6 0.2 -11.1 -0.3 -13.9 -1.2z"/>
  <path d="M464.7 340.3 c-0.4 -0.3 -0.7 -6 -0.7 -12.5 l0 -11.8 19.8 0 c21.7 0 22.2 0.1 24.1 5.9 1.4 4.2 1.4 7.5 0 12.4 -1.6 5.9 -4.5 6.7 -25.2 6.7 -9.6 0 -17.7 -0.3 -18 -0.7z"/>
  <path d="M464.7 308.3 c-0.4 -0.3 -0.7 -5.3 -0.7 -11 l0 -10.3 18.9 0 19 0 2 2.6 c1.5 1.9 2.1 4.1 2.1 7.5 0 5.9 -1.5 9.3 -4.7 10.8 -2.6 1.2 -35.5 1.6 -36.6 0.4z"/>
  <path d="M636 316.9 c0 -4.9 1.9 -12.9 3.1 -12.9 0.5 0 0.9 -0.8 0.9 -1.7 0 -1 1.1 -4.1 2.4 -6.9 3.3 -7 6.9 -8.4 22.1 -8.4 l11.5 0 0 17 0 17 -20 0 -20 0 0 -4.1z"/>
 </g>
 <g fill="#8cca6f">
  <path d="M268.5 439.4 c-5.2 -0.8 -16.9 -3.6 -18.8 -4.6 -1.2 -0.6 -2.3 -0.5 -3.3 0.3 -1.2 0.9 -1.4 0.6 -1.4 -1.9 0 -2.2 0.7 -3.5 2.3 -4.3 1.2 -0.6 6.2 -5 11 -9.8 14.7 -14.4 17 -22.2 10.2 -34.9 -5.3 -9.8 -9.7 -14.6 -21.7 -23.7 -5.7 -4.3 -10.7 -8.4 -11.3 -9 -1.5 -1.7 -10.5 -7.8 -14.8 -9.9 -3.2 -1.7 -3.7 -2.4 -3.7 -5.5 0 -3.2 0.7 -4.1 5.3 -7.7 9.1 -7 25.7 -29.4 25.7 -34.7 0 -1 0.6 -2.5 1.4 -3.3 0.8 -0.8 1.8 -3.6 2.2 -6.2 0.8 -5 -0.8 -17.1 -2.4 -18.1 -0.5 -0.3 -2.2 -3.1 -3.7 -6.1 -1.5 -3 -3.6 -6.7 -4.6 -8.2 -1.1 -1.4 -1.9 -4.1 -1.9 -6 0.1 -3 0.2 -3.1 1.4 -1.5 1.4 1.8 3.6 2.3 3.6 0.8 0 -3.8 32 -4 35 -0.1 0.3 0.3 3.1 1.9 6.4 3.4 6.1 3 16.5 10.5 22.9 16.5 4 3.7 6.2 6.7 15.4 20.6 2.9 4.4 5.9 8.7 6.6 9.5 2.7 3 10.9 23.5 13.3 33.4 3.1 12.1 4.2 32 2.5 44.4 -2.2 16.6 -9.2 32.8 -18 41.8 -14.5 14.7 -18 17.1 -30.9 21.4 -8.9 2.9 -21.6 4.4 -28.7 3.4z"/>
 </g>
 <g fill="#20b5eb">
  <path d="M817 351.5 c-3 -0.9 -5.7 -1.9 -6 -2.3 -0.3 -0.5 -2.1 -1.8 -4 -2.9 -4 -2.4 -9.4 -8.3 -11.5 -12.4 -3.8 -7.2 -4.3 -26.6 -1.1 -37.4 2.7 -8.9 12.2 -17.1 23.1 -20 6.9 -1.8 23.4 -2 32 -0.4 13.1 2.4 22.3 10.3 24.9 21.4 0.4 1.6 1.2 3.3 1.8 3.7 1.6 0.9 1.5 25.1 -0.1 25.6 -0.6 0.2 -1.1 1 -1.1 1.8 0 5 -9.6 17.2 -14.9 18.9 -1.2 0.3 -2.1 1 -2.1 1.5 0 3.4 -31 5.3 -41 2.5z m30.5 -15.5 c7.4 -3.7 9.8 -9.1 9.9 -21.9 0.1 -8.4 -0.2 -10.3 -2.6 -15.3 -2.2 -4.8 -3.3 -6 -7.2 -7.7 -9.1 -4.2 -23.3 -3.4 -28.8 1.6 -4.4 4 -6.3 10.2 -6.3 20.8 0.1 11.4 1.3 16 5.4 19.9 6.2 6 20.2 7.2 29.6 2.6z"/>
  <path d="M449 351 c-1.3 -0.8 -1.5 -6.2 -1.8 -36.4 -0.2 -31.4 -0.1 -35.6 1.3 -37 1.4 -1.4 4.9 -1.6 25.4 -1.6 25.6 0 31.6 0.7 38.9 4.3 6.4 3.2 9.2 8.1 9.2 16.5 0 6.3 -1.5 10.7 -4.4 13.1 -1.3 1.1 -1.2 1.6 1.5 3.8 4.5 3.8 5.9 7.4 5.9 14.8 0 4.6 -0.6 7.8 -2 10.5 -1.9 3.8 -8.1 9 -10.7 9 -0.7 0 -1.3 0.4 -1.3 0.9 0 2.1 -11.3 3.1 -35.3 3.1 -14.1 0 -25.9 -0.4 -26.7 -1z m51.5 -14.4 c4.1 -1.8 6 -6.8 4.3 -11.9 -1.8 -5.5 -2.7 -5.7 -21 -5.7 l-16.8 0 0 8.8 c0 4.9 0.3 9.2 0.7 9.5 1.3 1.4 29.2 0.8 32.8 -0.7z m-2.2 -31.7 c4.7 -2.1 6 -8 2.6 -12.3 l-2 -2.6 -16 0 -15.9 0 0 7.3 c0 4.1 0.3 7.7 0.7 8 1.1 1.2 28 0.8 30.6 -0.4z"/>
  <path d="M538.9 351.3 c-1 -0.2 -2 -1.4 -2.3 -2.6 -1 -3.7 -0.6 -69.1 0.4 -70.7 0.8 -1.3 5.8 -1.5 33.5 -1.8 21.8 -0.2 33.1 0.1 34.5 0.8 1.6 0.8 2 2.1 2 5.8 0 2.7 -0.5 5.3 -1.2 6 -0.9 0.9 -7.9 1.2 -25.5 1.2 l-24.4 0 0.3 8.3 0.3 8.2 21.5 0.3 c15.6 0.2 21.6 0.6 22.2 1.5 1.3 2 0.9 9.4 -0.5 10.6 -0.9 0.7 -8.9 1.2 -22.3 1.3 l-20.9 0.3 -0.3 8.3 -0.3 8.2 24.4 0 c17.6 0 24.6 0.3 25.5 1.2 0.7 0.7 1.2 3.6 1.2 6.5 0 4.1 -0.4 5.4 -1.9 6.3 -1.9 1 -62.6 1.3 -66.2 0.3z"/>
  <path d="M611.7 351.3 c-0.4 -0.3 -0.7 -1.8 -0.7 -3.1 0 -3.1 4 -18.5 5 -19.2 0.4 -0.3 1.1 -2.1 1.5 -4 1.2 -5.9 7.6 -30.3 8.8 -33.4 2.8 -7.6 10.7 -12.7 22.4 -14.5 9.1 -1.4 38.8 -1.5 41.4 -0.1 1.8 1 1.9 2.5 1.9 37 0 41.2 0.8 38 -9.7 38 -8.4 0 -8.7 -0.5 -9.2 -10.5 l-0.3 -8.5 -19 0.2 -19 0.3 -2.3 7.9 c-1.3 4.4 -3.1 8.6 -4.1 9.3 -1.8 1.3 -15.5 1.9 -16.7 0.6z m61.3 -47.3 l0 -14 -8.5 0 c-12 0 -16 1.8 -19.1 8.4 -1.3 2.8 -2.4 5.9 -2.4 6.9 0 0.9 -0.4 1.7 -0.9 1.7 -0.8 0 -3.1 7.4 -3.1 9.9 0 0.7 5.7 1.1 17 1.1 l17 0 0 -14z"/>
  <path d="M728.7 350.9 c-2.1 -0.5 -4.5 -1.6 -5.3 -2.4 -0.9 -0.8 -2.1 -1.5 -2.8 -1.5 -3.3 0 -9.5 -6.1 -12.7 -12.5 -2.8 -5.7 -3.3 -7.9 -3.7 -16.5 -0.6 -11.8 0.9 -20.5 4.6 -27.4 3.1 -5.7 6.6 -8.6 14.2 -11.7 5.1 -2.2 7 -2.3 24 -2.4 l18.5 0 6.8 3.3 c5.4 2.7 7.2 4.2 9.3 7.8 3.1 5.2 4.3 12.6 2.4 14.9 -0.9 1.1 -3.2 1.5 -8 1.5 -6.2 0 -7.1 -0.2 -8.9 -2.6 -1.2 -1.5 -2.1 -3.2 -2.1 -3.8 0 -0.7 -1.4 -2.5 -3.1 -4.2 l-3 -2.9 -12.9 0 c-15.1 0 -17 0.9 -20.2 9 -1.6 4.1 -1.9 6.9 -1.6 16 0.3 12 1.4 15.4 6.1 18.9 2.5 1.8 4.5 2.1 15.5 2.4 14.4 0.4 15.9 -0.2 20.9 -8 1.3 -2.2 3.3 -4.3 4.4 -4.5 1 -0.3 1.9 -0.9 1.9 -1.4 0 -0.5 1.8 -0.9 4 -0.9 2.9 0 4.8 0.7 6.7 2.4 2.3 2.2 2.5 2.9 1.9 7.3 -0.8 6 -4.8 11.9 -10.1 14.7 -2.2 1.1 -4.2 2.4 -4.5 2.7 -2.1 2.7 -33 4 -42.3 1.8z"/>
  <path d="M890.2 350.8 c-0.9 -0.9 -1.2 -10.4 -1.2 -36.8 0 -26.4 0.3 -35.9 1.2 -36.8 0.8 -0.8 4.7 -1.2 10.9 -1.2 11.8 0 12.3 0.3 20.3 13.5 3.1 5 6.2 9.7 6.9 10.5 1.9 2 14.7 21.8 14.7 22.8 0 0.4 1.1 2.1 2.5 3.7 l2.4 3 0.1 -25.7 c0 -29.6 -0.6 -27.8 9.9 -27.8 9.8 0 9.2 -2.3 8.9 38.6 -0.3 30.2 -0.5 35.6 -1.8 36.4 -2.3 1.5 -22.3 1.2 -24.2 -0.2 -0.9 -0.7 -3.9 -4.9 -6.8 -9.3 -2.8 -4.4 -5.5 -8.2 -5.9 -8.5 -1 -0.7 -7.1 -9.7 -7.1 -10.5 0 -0.3 -2.9 -5.1 -6.4 -10.6 l-6.5 -10.1 -0.3 24.1 c-0.3 20.2 -0.5 24.3 -1.8 25.1 -2.2 1.4 -14.4 1.2 -15.8 -0.2z"/>
  <path d="M72.1 346.5 c-0.7 -1.9 -1.6 -3.5 -2 -3.5 -1.4 0 -6 -11.3 -8.1 -19.6 -6 -24.3 -6.3 -52.4 -0.9 -78.7 1.8 -9.1 7.1 -24.6 9.2 -27.2 0.4 -0.5 2.9 -4.2 5.5 -8.2 15.2 -23.3 36.2 -32.6 63.1 -27.9 10 1.8 28.4 8.4 32.1 11.6 1.3 1.1 3 2 3.9 2 0.9 0 6.7 2.9 13 6.5 6.3 3.6 11.6 6.5 11.8 6.5 1.3 0 12.9 8.7 17.4 13 3 2.8 6.6 5.7 8 6.5 3.2 1.7 11.6 10.8 15.9 17.1 1.7 2.6 3 4.7 2.8 4.8 -0.2 0.1 -4.9 3.2 -10.6 7 -7.3 4.9 -13 9.8 -19.7 17 -5.1 5.5 -12.3 13.3 -15.9 17.1 -3.6 3.9 -6.6 7.3 -6.6 7.7 0 0.4 -2.7 3.9 -6 7.8 -5.9 6.7 -6.3 7 -10.6 7 -3 0 -7.7 -1.4 -14.7 -4.4 -5.6 -2.4 -12.9 -5.1 -16.2 -6.1 -3.3 -0.9 -6.2 -2 -6.5 -2.4 -0.7 -1 -13 -3.9 -20 -4.6 -7.4 -0.9 -18.7 1.7 -23.1 5.3 -12.1 9.7 -15.8 18.2 -17.5 40.2 -0.7 9.7 -2.1 11.5 -4.3 5.5z"/>
 </g>
 <g fill="#be007a">
  <path d="M129.9 497.3 c-5 -2.5 -18.9 -15.2 -18.9 -17.3 0 -0.5 -1.5 -3.4 -3.4 -6.3 -1.9 -3 -5.2 -8.9 -7.3 -13.3 -2.1 -4.3 -4.1 -8.1 -4.4 -8.4 -1.1 -1 -7.9 -19 -9.9 -26.2 -6.5 -23.5 -10.5 -44.3 -11.5 -60.3 -0.3 -5.5 -0.8 -11.7 -1 -13.7 -0.7 -5.8 2 -4.9 9.3 3.2 7.1 7.9 12.5 11.9 19.5 14.5 2.6 1 4.7 2.1 4.7 2.5 0 1.4 9.1 3.1 16.6 3.1 8.1 0.1 18.4 -1.7 18.4 -3.2 0 -0.5 0.9 -0.9 2.1 -0.9 1.1 0 6.7 -1.8 12.3 -4 5.6 -2.2 11.3 -4 12.6 -4 2.2 0 10 7.2 10 9.2 0 2 20.7 25 27.5 30.5 10.7 8.6 18.6 14.4 23.1 16.8 2.7 1.5 5.4 3.3 6 4.1 0.6 0.7 4.1 2.8 7.8 4.5 5.1 2.4 6.4 3.4 5.6 4.4 -1.9 2.3 -21.7 17.5 -22.8 17.5 -0.6 0 -1.7 0.8 -2.4 1.8 -1.3 1.8 -22 17.2 -23.2 17.2 -0.9 0 -14.8 9.2 -16.6 11 -2.1 2.1 -27.3 15 -35 17.9 -7.4 2.8 -12.5 2.7 -19.1 -0.6z"/>
  <path d="M444.2 412.8 c-1.7 -1.7 -1.7 -33.9 0 -35.6 1.2 -1.2 10.4 -1.7 13.2 -0.6 0.9 0.3 1.6 1.2 1.6 1.9 0 0.7 0.4 1.5 0.8 1.7 0.5 0.2 2.4 4.5 4.2 9.6 1.8 5.1 3.6 8.9 4 8.5 0.4 -0.4 2.2 -5.1 4 -10.3 1.8 -5.2 3.8 -10.1 4.3 -10.8 0.7 -0.9 3.2 -1.2 8.1 -1 l7.1 0.3 0.3 18.2 0.2 18.3 -2.4 0.6 c-1.3 0.3 -3.5 0.4 -4.7 0.2 -2.4 -0.3 -2.4 -0.6 -2.9 -13.8 -0.6 -15.4 -0.6 -15.4 -6.2 2.2 -3.5 10.7 -5.2 12.7 -10.1 11.4 -1.8 -0.4 -2.9 -1.7 -3.8 -4.3 -0.6 -2.1 -1.5 -4 -1.9 -4.3 -0.3 -0.3 -2 -4.5 -3.6 -9.4 l-2.9 -8.9 -0.3 12.3 c-0.1 7 -0.7 12.9 -1.4 13.7 -1.3 1.6 -6 1.7 -7.6 0.1z"/>
  <path d="M501.2 413.2 c-0.9 -0.7 -1.2 -5.1 -1 -18.8 l0.3 -17.9 17 0 17 0 0.3 3.3 0.3 3.2 -12.5 0 -12.6 0 0 4 0 3.9 10.8 0.3 10.7 0.3 0 3 0 3 -10.7 0.3 -10.8 0.3 0 3.9 0 4 11.3 0 c6.1 0 11.8 0.4 12.5 0.9 0.8 0.5 1.2 2.1 1 3.7 l-0.3 2.9 -16 0.2 c-8.8 0.2 -16.6 -0.1 -17.3 -0.5z"/>
  <path d="M542.1 412.2 c-1.7 -3.1 -1.5 -32.3 0.2 -34.6 1.2 -1.7 2.6 -1.8 13.3 -1.4 13.2 0.4 18.1 2 21.8 7.1 1.8 2.4 2.1 4.3 2.1 11.7 0 7.4 -0.3 9.3 -2.1 11.7 -3.6 5 -8.2 6.5 -21.8 7 -11.8 0.6 -12.4 0.5 -13.5 -1.5z m25.8 -8.1 c4.2 -4.2 3.5 -16.8 -1 -19.2 -1.1 -0.6 -5.1 -1.3 -9 -1.6 l-6.9 -0.6 0 11.7 0 11.6 7.5 0 c6.1 0 7.9 -0.4 9.4 -1.9z"/>
  <path d="M587.2 413.2 c-0.9 -0.7 -1.2 -5.1 -1 -18.8 l0.3 -17.9 4.4 -0.3 c2.8 -0.2 4.7 0.1 5.2 1 1.4 2.1 1.1 34.2 -0.3 35.6 -1.4 1.4 -6.7 1.6 -8.6 0.4z"/>
  <path d="M614.5 412.9 c-7.6 -1.8 -11.5 -7.8 -11.5 -17.8 0 -8 2.3 -13.5 6.7 -16.2 4.2 -2.6 19 -3.8 24.4 -2 5.3 1.8 9.1 5.7 9.3 9.4 0.1 3.1 -0.1 3.2 -4.1 3.5 -3.8 0.3 -4.3 0 -5.7 -2.6 -1.8 -3.4 -3.3 -4.2 -8.6 -4.2 -7.5 0 -10.1 1.1 -11.6 4.6 -1.6 3.9 -1.8 8.5 -0.4 13.5 0.8 3 1.7 3.8 4.9 4.7 4.8 1.5 10.6 1.5 13.2 0.2 1 -0.6 2.6 -2.4 3.4 -4 1.3 -2.6 2.1 -3 5.5 -3 3.9 0 4 0.1 4 3.7 0 6.9 -7.8 11.4 -19.5 11.2 -3.3 -0.1 -7.8 -0.5 -10 -1z"/>
  <path d="M647.5 413 c-0.7 -1.1 6 -28.2 7.7 -30.9 2.8 -4.5 6.6 -5.6 19.3 -5.6 l12 0 0 18.5 0 18.5 -4 0 c-4 0 -4 0 -4.3 -4.2 l-0.3 -4.3 -9.9 0 -9.8 0 -0.7 3.3 c-0.4 1.7 -1.2 3.8 -1.7 4.5 -1.2 1.4 -7.4 1.6 -8.3 0.2z m30 -23 l0 -6.5 -3.1 -0.3 c-8 -0.8 -11.8 2.2 -13.1 10.4 l-0.6 3.5 8.4 -0.3 8.4 -0.3 0 -6.5z"/>
  <path d="M697.2 412.8 c-1.3 -1.3 -1.8 -32.1 -0.6 -35.2 0.8 -2.2 8 -2.2 8.8 0 0.3 0.9 0.6 7.6 0.6 15 l0 13.4 11.3 0 c6.1 0 11.8 0.4 12.5 0.9 0.8 0.5 1.2 2.1 1 3.7 l-0.3 2.9 -16 0.3 c-11.6 0.2 -16.4 -0.1 -17.3 -1z"/>
  <path d="M752.5 412.2 c-6.1 -3 -8.2 -5.6 -9.5 -11.7 -3.5 -16.8 4.8 -25.2 24 -24.3 7 0.3 9.6 0.9 11.8 2.5 3.2 2.3 5.2 6 4.5 7.9 -0.8 2.2 -6.4 1.7 -9 -0.8 -1.9 -1.8 -3.9 -2.3 -9.3 -2.6 -6.3 -0.4 -7.1 -0.2 -9.4 2.1 -2.3 2.3 -2.6 3.4 -2.6 9.7 0 6.3 0.3 7.4 2.6 9.7 2.4 2.4 3 2.5 9.7 2 5.2 -0.3 7.4 -0.9 8.4 -2.3 2.2 -3 1.6 -4.4 -1.9 -4.4 -4.4 0 -6 -1.2 -5.6 -4.1 0.3 -2.3 0.7 -2.4 9.1 -2.7 l8.7 -0.3 0 5.6 c0 11.1 -4.2 14.6 -18.5 15.2 -7.4 0.3 -9.7 0 -13 -1.5z"/>
  <path d="M791.2 412.8 c-1.3 -1.3 -1.8 -32.1 -0.6 -35.2 0.5 -1.3 2.7 -1.6 13.8 -1.6 11.7 0 13.7 0.3 17.6 2.3 5.8 2.9 7.7 6.2 6.5 11.3 -1 3.8 -1.9 4.7 -6.9 6.4 l-2.9 1.1 2.1 1.5 c1.2 0.8 2.2 2.2 2.2 3 0 0.8 0.4 1.4 0.9 1.4 1.4 0 6.3 8.9 5.6 10 -0.8 1.3 -7.1 1.3 -9.5 0 -1 -0.5 -3.1 -3.1 -4.8 -5.8 -4.3 -7 -5.8 -8.2 -10.3 -8.2 l-3.9 0 0 6.9 c0 5.4 -0.4 7 -1.6 7.5 -2.6 1 -6.9 0.7 -8.2 -0.6z m25.6 -22 c2.1 -2.1 1.4 -5.4 -1.3 -6.6 -1.4 -0.7 -5.3 -1.2 -8.5 -1.2 l-6 0 0 4.5 0 4.5 7.3 0 c4.3 0 7.8 -0.5 8.5 -1.2z"/>
  <path d="M842.5 412.6 c-6.1 -2.7 -9.5 -9.2 -9.5 -18.2 0 -10.5 6.7 -18.4 15.5 -18.4 1.4 0 2.5 -0.4 2.5 -1 0 -0.5 1.6 -1 3.5 -1 1.9 0 3.5 0.4 3.5 0.9 0 0.5 1.8 1.1 4 1.5 10.2 1.6 15.4 13.1 11.9 26.1 -1.3 4.8 -4.3 8.3 -8.6 10.1 -4.2 1.8 -18.8 1.8 -22.8 0z m15.7 -5.6 c5.3 -1.5 6.8 -4.2 6.8 -12.1 0 -5.1 -0.5 -7.2 -2 -9.2 -3.8 -4.8 -15 -4.4 -18.5 0.6 -1 1.4 -1.5 4.5 -1.5 8.8 0 9 1.7 11 11 12.8 0.3 0 2.2 -0.4 4.2 -0.9z"/>
  <path d="M890.5 412.9 c-7.4 -2.8 -9.5 -8.2 -9.5 -24.8 0 -11.1 0.7 -12.4 6.2 -11.9 l3.3 0.3 0.5 13.8 c0.4 12.2 0.7 14 2.4 15.3 2.9 2.1 10.9 1.8 13.7 -0.5 2.1 -1.7 2.3 -2.8 2.8 -15.2 l0.6 -13.4 4 0 4 0 0.3 13.3 c0.3 15.1 -0.8 19.1 -6.2 21.9 -3.8 2 -17.8 2.7 -22.1 1.2z"/>
  <path d="M928.3 413.3 c-1 -0.3 -1.3 -5 -1.3 -18.3 0 -15.3 0.2 -17.9 1.6 -18.4 0.9 -0.3 7 -0.6 13.7 -0.6 15.6 0.1 19.6 1.5 22.2 8.4 2.1 5.4 1.6 10.1 -1.6 15.2 -2.8 4.5 -5.3 5.4 -16.6 6.1 l-9.3 0.6 0 3.2 c0 2.1 -0.6 3.5 -1.6 3.9 -1.8 0.7 -5.3 0.7 -7.1 -0.1z m25.2 -17.9 c2.5 -1.6 3.4 -6.5 1.7 -9 -1.2 -1.8 -7.2 -3.4 -12.8 -3.4 l-5.4 0 0 7 0 7 7 0 c4.8 0 7.9 -0.5 9.5 -1.6z"/>
 </g>
 <g fill="#009b4e">
  <path d="M209 334.3 c-4.1 -2.5 -9 -5.2 -10.7 -6 -1.8 -0.7 -3.3 -1.7 -3.3 -2.1 0 -0.4 -5.2 -3.4 -11.5 -6.7 -7.9 -4.2 -11.5 -6.5 -11.5 -7.7 0 -1.1 0.8 -1.8 2 -1.8 1.7 0 14 -12.9 14 -14.8 0 -0.4 3 -3.8 6.6 -7.7 3.6 -3.8 10.8 -11.6 16 -17.2 6.8 -7.3 12.5 -12.2 20.1 -17.3 l10.7 -7.2 1.9 2.4 c1.1 1.2 3.3 5 4.9 8.3 1.7 3.3 3.4 6.2 3.9 6.5 3.7 2.4 3.6 31 -0.1 31 -0.6 0 -1 1 -1 2.3 0 5.4 -15.7 27.1 -24.8 34.3 -2.6 2.1 -5.1 4.2 -5.6 4.6 -0.6 0.5 -0.2 1.4 1 2.3 1.8 1.4 1.7 1.4 -1.6 1.4 -2.4 0 -5.8 -1.4 -11 -4.6z"/>
 </g>
 <g fill="#282781">
  <path d="M118 378.4 c-6.2 -0.7 -14 -2.5 -14 -3.3 0 -0.5 -2.1 -1.6 -4.7 -2.6 -6.5 -2.4 -11.8 -6.2 -17.9 -12.6 -8.6 -9.2 -8.8 -9.6 -8.1 -20.7 1.5 -22.7 5.3 -31.6 17.6 -41.4 5 -4 16.1 -6.2 26.9 -5.4 8.5 0.6 21.3 3.3 22.2 4.7 0.3 0.4 3.2 1.5 6.5 2.4 5.1 1.5 10.5 3.6 29.3 11.5 1.2 0.5 2.2 1.3 2.2 1.8 0 0.4 -2.2 3.2 -5 6.1 -2.7 2.9 -5 5.8 -5 6.3 0 0.5 -0.8 2.2 -1.8 3.6 -5 7.2 -4.3 15.9 2.2 27.6 3.8 7 5.2 14.6 2 11.5 -1.4 -1.5 -2.4 -1.3 -11.2 2.2 -5.3 2.1 -10.7 3.9 -11.9 3.9 -1.3 0 -2.3 0.4 -2.3 0.9 0 1.9 -19.1 4.3 -27 3.5z"/>
 </g>
 <g fill="#692a2d">
  <path d="M240.1 431 c-3.5 -1.7 -6.9 -3.7 -7.5 -4.4 -0.6 -0.8 -3.3 -2.6 -6 -4.1 -4.5 -2.4 -12.4 -8.2 -23.1 -16.8 -6.9 -5.6 -27.5 -28.5 -27.5 -30.6 0 -0.4 -1.3 -2.2 -2.9 -3.9 -1.6 -1.7 -3.7 -4.4 -4.5 -6.1 l-1.6 -3 3.4 -1 c3.6 -0.9 26.9 -13.3 28.6 -15.1 0.6 -0.7 13.8 -10.1 15.7 -11.3 0.9 -0.6 3.1 0.2 6.2 2.2 2.6 1.7 5.1 3.1 5.6 3.1 0.9 0 10.5 6.8 12 8.5 0.6 0.6 5.6 4.7 11.3 9 12 9.1 16.3 13.9 21.8 23.8 3.5 6.5 3.9 7.9 3.9 14.3 -0.1 10 -3.1 15.7 -14.2 26.5 -7.3 7.1 -13.2 11.9 -14.5 11.9 -0.2 0 -3.2 -1.4 -6.7 -3z"/>
 </g>
 <g fill="#2f2c2f">
  <path d="M167.7 363.6 c-6.5 -9.9 -9.9 -23.5 -7.7 -30.8 0.7 -2.4 2.1 -5.5 3.1 -7 1.1 -1.4 1.9 -2.9 1.9 -3.4 0 -1.2 7 -9.4 9.1 -10.5 1.6 -0.8 3.9 0 12.7 4.7 5.9 3.1 11.1 6.3 11.5 7.1 0.4 0.7 1.3 1.3 1.9 1.3 1.5 0 18.8 10.2 18.8 11.1 0 0.3 -3.7 3.2 -8.2 6.5 -4.6 3.2 -8.5 6.1 -8.8 6.4 -1.6 1.6 -23.4 13.3 -28.2 15.1 -4.6 1.7 -4.7 1.7 -6.1 -0.5z"/>
 </g>
</svg>